M48
;Layer_Color=9474304
;FILE_FORMAT=2:4
INCH,TZ
;TYPE=PLATED
T1F00S00C0.0079
T3F00S00C0.0402
%
T01
X2880Y2316
X2888Y2554
X3450Y2850
X4040Y2920
X4230Y3570
X4250Y2110
X3568Y2061
X7184Y2943
X8576Y3665
X9677Y2860
X11740Y2660
X11750Y2337
X8573Y1360
X8730Y280
T03
X6200Y750
Y2050
Y3350
Y4650
X7600Y4700
X12650Y3750
Y2750
Y1750
M30
