G04*
G04 #@! TF.GenerationSoftware,Altium Limited,Altium Designer,21.2.2 (38)*
G04*
G04 Layer_Physical_Order=2*
G04 Layer_Color=36540*
%FSLAX25Y25*%
%MOIN*%
G70*
G04*
G04 #@! TF.SameCoordinates,D102F6C4-1F96-4035-BECF-554025CD0FF2*
G04*
G04*
G04 #@! TF.FilePolarity,Positive*
G04*
G01*
G75*
G04:AMPARAMS|DCode=27|XSize=43.31mil|YSize=82.68mil|CornerRadius=21.65mil|HoleSize=0mil|Usage=FLASHONLY|Rotation=270.000|XOffset=0mil|YOffset=0mil|HoleType=Round|Shape=RoundedRectangle|*
%AMROUNDEDRECTD27*
21,1,0.04331,0.03937,0,0,270.0*
21,1,0.00000,0.08268,0,0,270.0*
1,1,0.04331,-0.01968,0.00000*
1,1,0.04331,-0.01968,0.00000*
1,1,0.04331,0.01968,0.00000*
1,1,0.04331,0.01968,0.00000*
%
%ADD27ROUNDEDRECTD27*%
G04:AMPARAMS|DCode=28|XSize=43.31mil|YSize=102.36mil|CornerRadius=21.65mil|HoleSize=0mil|Usage=FLASHONLY|Rotation=270.000|XOffset=0mil|YOffset=0mil|HoleType=Round|Shape=RoundedRectangle|*
%AMROUNDEDRECTD28*
21,1,0.04331,0.05906,0,0,270.0*
21,1,0.00000,0.10236,0,0,270.0*
1,1,0.04331,-0.02953,0.00000*
1,1,0.04331,-0.02953,0.00000*
1,1,0.04331,0.02953,0.00000*
1,1,0.04331,0.02953,0.00000*
%
%ADD28ROUNDEDRECTD28*%
%ADD31C,0.06181*%
%ADD34R,0.06102X0.06102*%
G36*
X147500Y2500D02*
X88702D01*
X88686Y2524D01*
Y3076D01*
X88475Y3585D01*
X88085Y3975D01*
X87576Y4186D01*
X87024D01*
X86515Y3975D01*
X86125Y3585D01*
X85914Y3076D01*
Y2524D01*
X85898Y2500D01*
X2500D01*
Y12288D01*
X4645D01*
X4744Y11788D01*
X4612Y11733D01*
X4076Y11322D01*
X3665Y10786D01*
X3406Y10162D01*
X3344Y9692D01*
X8858D01*
X14372D01*
X14310Y10162D01*
X14052Y10786D01*
X13641Y11322D01*
X13105Y11733D01*
X12972Y11788D01*
X13072Y12288D01*
X24134D01*
X24440Y12415D01*
X24567Y12721D01*
Y40280D01*
X24440Y40586D01*
X24134Y40713D01*
X13073D01*
X12974Y41213D01*
X13105Y41267D01*
X13641Y41678D01*
X14052Y42214D01*
X14310Y42838D01*
X14372Y43308D01*
X8858D01*
X3344D01*
X3406Y42838D01*
X3665Y42214D01*
X4076Y41678D01*
X4612Y41267D01*
X4743Y41213D01*
X4643Y40713D01*
X2500D01*
Y52500D01*
X147500D01*
Y2500D01*
D02*
G37*
%LPC*%
G36*
X31929Y46095D02*
X30161D01*
Y43708D01*
X34490D01*
X34429Y44178D01*
X34170Y44802D01*
X33759Y45338D01*
X33223Y45749D01*
X32599Y46007D01*
X31929Y46095D01*
D02*
G37*
G36*
X11811D02*
X9058D01*
Y43708D01*
X14372D01*
X14310Y44178D01*
X14052Y44802D01*
X13641Y45338D01*
X13105Y45749D01*
X12481Y46007D01*
X11811Y46095D01*
D02*
G37*
G36*
X29761D02*
X27992D01*
X27322Y46007D01*
X26698Y45749D01*
X26162Y45338D01*
X25751Y44802D01*
X25493Y44178D01*
X25431Y43708D01*
X29761D01*
Y46095D01*
D02*
G37*
G36*
X8658D02*
X5906D01*
X5236Y46007D01*
X4612Y45749D01*
X4076Y45338D01*
X3665Y44802D01*
X3406Y44178D01*
X3344Y43708D01*
X8658D01*
Y46095D01*
D02*
G37*
G36*
X76459Y50491D02*
X75541D01*
X74653Y50253D01*
X73857Y49793D01*
X73207Y49143D01*
X72747Y48347D01*
X72509Y47460D01*
Y46540D01*
X72747Y45653D01*
X73207Y44857D01*
X73857Y44207D01*
X74653Y43747D01*
X75541Y43509D01*
X76459D01*
X77347Y43747D01*
X78143Y44207D01*
X78793Y44857D01*
X79253Y45653D01*
X79491Y46540D01*
Y47460D01*
X79253Y48347D01*
X78793Y49143D01*
X78143Y49793D01*
X77347Y50253D01*
X76459Y50491D01*
D02*
G37*
G36*
X62459Y49991D02*
X61541D01*
X60653Y49753D01*
X59857Y49293D01*
X59207Y48643D01*
X58747Y47847D01*
X58509Y46959D01*
Y46040D01*
X58747Y45153D01*
X59207Y44357D01*
X59857Y43707D01*
X60653Y43247D01*
X61541Y43009D01*
X62459D01*
X63347Y43247D01*
X64143Y43707D01*
X64793Y44357D01*
X65253Y45153D01*
X65491Y46040D01*
Y46959D01*
X65253Y47847D01*
X64793Y48643D01*
X64143Y49293D01*
X63347Y49753D01*
X62459Y49991D01*
D02*
G37*
G36*
X34490Y43308D02*
X30161D01*
Y40920D01*
X31929D01*
X32599Y41009D01*
X33223Y41267D01*
X33759Y41678D01*
X34170Y42214D01*
X34429Y42838D01*
X34490Y43308D01*
D02*
G37*
G36*
X29761D02*
X25431D01*
X25493Y42838D01*
X25751Y42214D01*
X26162Y41678D01*
X26698Y41267D01*
X27322Y41009D01*
X27992Y40920D01*
X29761D01*
Y43308D01*
D02*
G37*
G36*
X129951Y40951D02*
X126700D01*
Y37700D01*
X129951D01*
Y40951D01*
D02*
G37*
G36*
X126300D02*
X123049D01*
Y37700D01*
X126300D01*
Y40951D01*
D02*
G37*
G36*
X86037Y38036D02*
X85486D01*
X84976Y37825D01*
X84586Y37435D01*
X84375Y36926D01*
Y36374D01*
X84586Y35865D01*
X84976Y35475D01*
X85486Y35264D01*
X86037D01*
X86546Y35475D01*
X86936Y35865D01*
X87147Y36374D01*
Y36926D01*
X86936Y37435D01*
X86546Y37825D01*
X86037Y38036D01*
D02*
G37*
G36*
X42576Y37086D02*
X42024D01*
X41515Y36875D01*
X41125Y36485D01*
X40914Y35976D01*
Y35424D01*
X41125Y34915D01*
X41515Y34525D01*
X42024Y34314D01*
X42576D01*
X43085Y34525D01*
X43475Y34915D01*
X43686Y35424D01*
Y35976D01*
X43475Y36485D01*
X43085Y36875D01*
X42576Y37086D01*
D02*
G37*
G36*
X129951Y37300D02*
X126700D01*
Y34049D01*
X129951D01*
Y37300D01*
D02*
G37*
G36*
X126300D02*
X123049D01*
Y34049D01*
X126300D01*
Y37300D01*
D02*
G37*
G36*
X62459Y36991D02*
X61541D01*
X60653Y36753D01*
X59857Y36293D01*
X59207Y35643D01*
X58747Y34847D01*
X58509Y33959D01*
Y33040D01*
X58747Y32153D01*
X59207Y31357D01*
X59857Y30707D01*
X60653Y30247D01*
X61541Y30009D01*
X62459D01*
X63347Y30247D01*
X64143Y30707D01*
X64793Y31357D01*
X65253Y32153D01*
X65491Y33040D01*
Y33959D01*
X65253Y34847D01*
X64793Y35643D01*
X64143Y36293D01*
X63347Y36753D01*
X62459Y36991D01*
D02*
G37*
G36*
X72119Y30814D02*
X71568D01*
X71059Y30603D01*
X70669Y30213D01*
X70458Y29704D01*
Y29153D01*
X70669Y28643D01*
X71059Y28253D01*
X71568Y28042D01*
X72119D01*
X72629Y28253D01*
X73018Y28643D01*
X73229Y29153D01*
Y29704D01*
X73018Y30213D01*
X72629Y30603D01*
X72119Y30814D01*
D02*
G37*
G36*
X40676Y30586D02*
X40124D01*
X39615Y30375D01*
X39225Y29985D01*
X39014Y29476D01*
Y28924D01*
X39225Y28415D01*
X39615Y28025D01*
X40124Y27814D01*
X40676D01*
X41185Y28025D01*
X41575Y28415D01*
X41786Y28924D01*
Y29476D01*
X41575Y29985D01*
X41185Y30375D01*
X40676Y30586D01*
D02*
G37*
G36*
X97043Y29981D02*
X96491D01*
X95982Y29770D01*
X95592Y29380D01*
X95381Y28871D01*
Y28319D01*
X95592Y27810D01*
X95982Y27420D01*
X96491Y27209D01*
X97043D01*
X97552Y27420D01*
X97942Y27810D01*
X98153Y28319D01*
Y28871D01*
X97942Y29380D01*
X97552Y29770D01*
X97043Y29981D01*
D02*
G37*
G36*
X34776Y29886D02*
X34224D01*
X33715Y29675D01*
X33325Y29285D01*
X33114Y28776D01*
Y28224D01*
X33325Y27715D01*
X33715Y27325D01*
X34224Y27114D01*
X34776D01*
X35285Y27325D01*
X35675Y27715D01*
X35886Y28224D01*
Y28776D01*
X35675Y29285D01*
X35285Y29675D01*
X34776Y29886D01*
D02*
G37*
G36*
X126954Y30951D02*
X126046D01*
X125168Y30716D01*
X124381Y30262D01*
X123738Y29619D01*
X123284Y28832D01*
X123049Y27954D01*
Y27046D01*
X123284Y26168D01*
X123738Y25381D01*
X124381Y24738D01*
X125168Y24284D01*
X126046Y24049D01*
X126954D01*
X127832Y24284D01*
X128619Y24738D01*
X129262Y25381D01*
X129716Y26168D01*
X129951Y27046D01*
Y27954D01*
X129716Y28832D01*
X129262Y29619D01*
X128619Y30262D01*
X127832Y30716D01*
X126954Y30951D01*
D02*
G37*
G36*
X117676Y27986D02*
X117124D01*
X116615Y27775D01*
X116225Y27385D01*
X116014Y26876D01*
Y26324D01*
X116225Y25815D01*
X116615Y25425D01*
X117122Y25215D01*
X117124Y25205D01*
X117129Y24714D01*
X116714Y24542D01*
X116324Y24152D01*
X116113Y23643D01*
Y23092D01*
X116324Y22582D01*
X116714Y22193D01*
X117223Y21982D01*
X117774D01*
X118284Y22193D01*
X118674Y22582D01*
X118885Y23092D01*
Y23643D01*
X118674Y24152D01*
X118284Y24542D01*
X117777Y24752D01*
X117774Y24763D01*
X117770Y25253D01*
X118185Y25425D01*
X118575Y25815D01*
X118786Y26324D01*
Y26876D01*
X118575Y27385D01*
X118185Y27775D01*
X117676Y27986D01*
D02*
G37*
G36*
X29151Y26925D02*
X28600D01*
X28090Y26714D01*
X27700Y26324D01*
X27490Y25815D01*
Y25264D01*
X27700Y24754D01*
X28033Y24422D01*
X28016Y24337D01*
X27626Y23947D01*
X27415Y23438D01*
Y22887D01*
X27626Y22377D01*
X28016Y21988D01*
X28526Y21777D01*
X29077D01*
X29586Y21988D01*
X29976Y22377D01*
X30187Y22887D01*
Y23438D01*
X29976Y23947D01*
X29643Y24280D01*
X29660Y24364D01*
X30050Y24754D01*
X30261Y25264D01*
Y25815D01*
X30050Y26324D01*
X29660Y26714D01*
X29151Y26925D01*
D02*
G37*
G36*
X42776Y22486D02*
X42224D01*
X41715Y22275D01*
X41325Y21885D01*
X41114Y21376D01*
Y20824D01*
X41325Y20315D01*
X41715Y19925D01*
X42224Y19714D01*
X42776D01*
X43285Y19925D01*
X43675Y20315D01*
X43886Y20824D01*
Y21376D01*
X43675Y21885D01*
X43285Y22275D01*
X42776Y22486D01*
D02*
G37*
G36*
X35954Y21994D02*
X35403D01*
X34893Y21783D01*
X34503Y21393D01*
X34292Y20884D01*
Y20333D01*
X34503Y19823D01*
X34893Y19433D01*
X35403Y19222D01*
X35954D01*
X36463Y19433D01*
X36853Y19823D01*
X37064Y20333D01*
Y20884D01*
X36853Y21393D01*
X36463Y21783D01*
X35954Y21994D01*
D02*
G37*
G36*
X62459Y23990D02*
X61541D01*
X60653Y23753D01*
X59857Y23293D01*
X59207Y22643D01*
X58747Y21847D01*
X58509Y20959D01*
Y20041D01*
X58747Y19153D01*
X59207Y18357D01*
X59857Y17707D01*
X60653Y17247D01*
X61541Y17009D01*
X62459D01*
X63347Y17247D01*
X64143Y17707D01*
X64793Y18357D01*
X65253Y19153D01*
X65491Y20041D01*
Y20959D01*
X65253Y21847D01*
X64793Y22643D01*
X64143Y23293D01*
X63347Y23753D01*
X62459Y23990D01*
D02*
G37*
G36*
X126954Y20951D02*
X126046D01*
X125168Y20716D01*
X124381Y20262D01*
X123738Y19619D01*
X123284Y18832D01*
X123049Y17954D01*
Y17046D01*
X123284Y16168D01*
X123738Y15381D01*
X124381Y14738D01*
X125168Y14284D01*
X126046Y14049D01*
X126954D01*
X127832Y14284D01*
X128619Y14738D01*
X129262Y15381D01*
X129716Y16168D01*
X129951Y17046D01*
Y17954D01*
X129716Y18832D01*
X129262Y19619D01*
X128619Y20262D01*
X127832Y20716D01*
X126954Y20951D01*
D02*
G37*
G36*
X86010Y14988D02*
X85459D01*
X84950Y14777D01*
X84560Y14387D01*
X84349Y13877D01*
Y13326D01*
X84560Y12817D01*
X84950Y12427D01*
X85459Y12216D01*
X86010D01*
X86520Y12427D01*
X86910Y12817D01*
X87120Y13326D01*
Y13877D01*
X86910Y14387D01*
X86520Y14777D01*
X86010Y14988D01*
D02*
G37*
G36*
X31929Y12080D02*
X30161D01*
Y9692D01*
X34490D01*
X34429Y10162D01*
X34170Y10786D01*
X33759Y11322D01*
X33223Y11733D01*
X32599Y11992D01*
X31929Y12080D01*
D02*
G37*
G36*
X29761D02*
X27992D01*
X27322Y11992D01*
X26698Y11733D01*
X26162Y11322D01*
X25751Y10786D01*
X25493Y10162D01*
X25431Y9692D01*
X29761D01*
Y12080D01*
D02*
G37*
G36*
X62459Y10991D02*
X62200D01*
Y7700D01*
X65491D01*
Y7959D01*
X65253Y8847D01*
X64793Y9643D01*
X64143Y10293D01*
X63347Y10753D01*
X62459Y10991D01*
D02*
G37*
G36*
X61800D02*
X61541D01*
X60653Y10753D01*
X59857Y10293D01*
X59207Y9643D01*
X58747Y8847D01*
X58509Y7959D01*
Y7700D01*
X61800D01*
Y10991D01*
D02*
G37*
G36*
X34490Y9292D02*
X30161D01*
Y6905D01*
X31929D01*
X32599Y6993D01*
X33223Y7251D01*
X33759Y7662D01*
X34170Y8198D01*
X34429Y8822D01*
X34490Y9292D01*
D02*
G37*
G36*
X29761D02*
X25431D01*
X25493Y8822D01*
X25751Y8198D01*
X26162Y7662D01*
X26698Y7251D01*
X27322Y6993D01*
X27992Y6905D01*
X29761D01*
Y9292D01*
D02*
G37*
G36*
X14372D02*
X9058D01*
Y6905D01*
X11811D01*
X12481Y6993D01*
X13105Y7251D01*
X13641Y7662D01*
X14052Y8198D01*
X14310Y8822D01*
X14372Y9292D01*
D02*
G37*
G36*
X8658D02*
X3344D01*
X3406Y8822D01*
X3665Y8198D01*
X4076Y7662D01*
X4612Y7251D01*
X5236Y6993D01*
X5906Y6905D01*
X8658D01*
Y9292D01*
D02*
G37*
G36*
X65491Y7300D02*
X62200D01*
Y4009D01*
X62459D01*
X63347Y4247D01*
X64143Y4707D01*
X64793Y5357D01*
X65253Y6153D01*
X65491Y7040D01*
Y7300D01*
D02*
G37*
G36*
X61800D02*
X58509D01*
Y7040D01*
X58747Y6153D01*
X59207Y5357D01*
X59857Y4707D01*
X60653Y4247D01*
X61541Y4009D01*
X61800D01*
Y7300D01*
D02*
G37*
%LPD*%
D27*
X29961Y43508D02*
D03*
Y9492D02*
D03*
D28*
X8858Y43508D02*
D03*
Y9492D02*
D03*
D31*
X62000Y7500D02*
D03*
D34*
X126500Y37500D02*
D03*
M02*
