G04*
G04 #@! TF.GenerationSoftware,Altium Limited,Altium Designer,21.2.2 (38)*
G04*
G04 Layer_Color=16711935*
%FSLAX25Y25*%
%MOIN*%
G70*
G04*
G04 #@! TF.SameCoordinates,D102F6C4-1F96-4035-BECF-554025CD0FF2*
G04*
G04*
G04 #@! TF.FilePolarity,Positive*
G04*
G01*
G75*
%ADD12C,0.00787*%
G36*
X45020Y9906D02*
X45017Y9876D01*
Y9846D01*
X45014Y9810D01*
X45012Y9770D01*
X45003Y9688D01*
X44990Y9603D01*
X44973Y9521D01*
X44962Y9486D01*
X44952Y9450D01*
Y9447D01*
X44949Y9442D01*
X44943Y9434D01*
X44938Y9420D01*
X44921Y9387D01*
X44897Y9349D01*
X44864Y9303D01*
X44820Y9256D01*
X44771Y9210D01*
X44711Y9169D01*
X44708D01*
X44703Y9164D01*
X44695Y9158D01*
X44681Y9153D01*
X44665Y9144D01*
X44646Y9136D01*
X44624Y9125D01*
X44599Y9114D01*
X44542Y9095D01*
X44479Y9079D01*
X44408Y9068D01*
X44332Y9063D01*
X44329D01*
X44321D01*
X44304D01*
X44288Y9065D01*
X44263Y9068D01*
X44236Y9071D01*
X44206Y9076D01*
X44173Y9084D01*
X44102Y9106D01*
X44064Y9120D01*
X44026Y9136D01*
X43988Y9155D01*
X43950Y9180D01*
X43914Y9207D01*
X43879Y9237D01*
X43876Y9240D01*
X43870Y9245D01*
X43862Y9256D01*
X43849Y9270D01*
X43835Y9289D01*
X43819Y9311D01*
X43799Y9338D01*
X43780Y9371D01*
X43761Y9407D01*
X43742Y9445D01*
X43723Y9488D01*
X43704Y9538D01*
X43687Y9589D01*
X43671Y9647D01*
X43657Y9709D01*
X43647Y9775D01*
Y9772D01*
X43644Y9770D01*
X43636Y9753D01*
X43622Y9729D01*
X43606Y9699D01*
X43587Y9666D01*
X43567Y9633D01*
X43543Y9600D01*
X43521Y9573D01*
X43518Y9570D01*
X43516Y9567D01*
X43507Y9559D01*
X43496Y9548D01*
X43483Y9535D01*
X43466Y9518D01*
X43428Y9483D01*
X43379Y9442D01*
X43322Y9396D01*
X43256Y9346D01*
X43185Y9297D01*
X42500Y8861D01*
Y9278D01*
X43024Y9611D01*
X43027Y9614D01*
X43035Y9617D01*
X43046Y9625D01*
X43062Y9636D01*
X43082Y9647D01*
X43103Y9663D01*
X43152Y9696D01*
X43210Y9734D01*
X43267Y9772D01*
X43322Y9813D01*
X43371Y9851D01*
X43374D01*
X43376Y9857D01*
X43390Y9868D01*
X43412Y9884D01*
X43436Y9909D01*
X43464Y9933D01*
X43491Y9963D01*
X43518Y9993D01*
X43537Y10021D01*
X43540Y10023D01*
X43545Y10034D01*
X43554Y10048D01*
X43565Y10067D01*
X43576Y10092D01*
X43587Y10116D01*
X43597Y10144D01*
X43606Y10174D01*
Y10176D01*
X43608Y10185D01*
X43611Y10198D01*
X43614Y10217D01*
Y10245D01*
X43617Y10277D01*
X43619Y10316D01*
Y10744D01*
X42500D01*
Y11077D01*
X45020D01*
Y9906D01*
D02*
G37*
G36*
X44397Y8426D02*
X44400Y8418D01*
X44408Y8405D01*
X44416Y8386D01*
X44427Y8364D01*
X44444Y8336D01*
X44460Y8306D01*
X44477Y8276D01*
X44520Y8205D01*
X44572Y8129D01*
X44627Y8050D01*
X44689Y7976D01*
X44692Y7973D01*
X44698Y7968D01*
X44706Y7957D01*
X44719Y7943D01*
X44736Y7930D01*
X44752Y7910D01*
X44799Y7869D01*
X44848Y7823D01*
X44905Y7777D01*
X44965Y7736D01*
X45028Y7700D01*
Y7501D01*
X42500D01*
Y7809D01*
X44468D01*
X44463Y7815D01*
X44449Y7829D01*
X44430Y7853D01*
X44403Y7889D01*
X44370Y7930D01*
X44335Y7981D01*
X44296Y8039D01*
X44255Y8104D01*
Y8107D01*
X44250Y8112D01*
X44244Y8121D01*
X44239Y8134D01*
X44228Y8151D01*
X44220Y8170D01*
X44195Y8213D01*
X44171Y8263D01*
X44143Y8317D01*
X44119Y8375D01*
X44097Y8429D01*
X44395D01*
X44397Y8426D01*
D02*
G37*
G36*
X18238Y26200D02*
X18235D01*
X18224D01*
X18211Y26197D01*
X18192D01*
X18167Y26194D01*
X18140Y26192D01*
X18080Y26183D01*
X18014Y26170D01*
X17949Y26151D01*
X17919Y26140D01*
X17889Y26126D01*
X17864Y26110D01*
X17842Y26093D01*
X17837Y26088D01*
X17826Y26074D01*
X17809Y26052D01*
X17790Y26022D01*
X17771Y25984D01*
X17755Y25938D01*
X17744Y25886D01*
X17739Y25826D01*
Y25804D01*
X17741Y25782D01*
X17747Y25752D01*
X17752Y25717D01*
X17763Y25681D01*
X17777Y25646D01*
X17796Y25610D01*
X17798Y25605D01*
X17807Y25594D01*
X17820Y25580D01*
X17837Y25558D01*
X17859Y25539D01*
X17886Y25517D01*
X17916Y25498D01*
X17951Y25482D01*
X17957Y25479D01*
X17970Y25476D01*
X17995Y25471D01*
X18028Y25463D01*
X18071Y25457D01*
X18126Y25452D01*
X18189Y25449D01*
X18227Y25446D01*
X18265D01*
X20002D01*
Y25113D01*
X18284D01*
X18282D01*
X18271D01*
X18254D01*
X18233D01*
X18205Y25116D01*
X18175D01*
X18140Y25119D01*
X18104Y25124D01*
X18025Y25132D01*
X17943Y25146D01*
X17864Y25165D01*
X17829Y25179D01*
X17793Y25192D01*
X17790D01*
X17785Y25195D01*
X17777Y25201D01*
X17766Y25206D01*
X17733Y25225D01*
X17695Y25252D01*
X17654Y25285D01*
X17610Y25326D01*
X17569Y25378D01*
X17531Y25435D01*
Y25438D01*
X17528Y25444D01*
X17523Y25452D01*
X17517Y25465D01*
X17509Y25479D01*
X17504Y25498D01*
X17495Y25520D01*
X17487Y25545D01*
X17468Y25602D01*
X17455Y25667D01*
X17444Y25741D01*
X17441Y25823D01*
Y25856D01*
X17444Y25878D01*
X17446Y25905D01*
X17452Y25938D01*
X17457Y25973D01*
X17466Y26011D01*
X17474Y26052D01*
X17487Y26093D01*
X17501Y26137D01*
X17520Y26178D01*
X17542Y26222D01*
X17567Y26260D01*
X17596Y26298D01*
X17629Y26333D01*
X17632Y26336D01*
X17637Y26342D01*
X17648Y26350D01*
X17665Y26361D01*
X17684Y26375D01*
X17708Y26388D01*
X17739Y26405D01*
X17771Y26421D01*
X17809Y26434D01*
X17850Y26451D01*
X17897Y26465D01*
X17949Y26478D01*
X18003Y26486D01*
X18063Y26495D01*
X18126Y26500D01*
X18194D01*
X18238Y26200D01*
D02*
G37*
G36*
X19379Y24455D02*
X19382Y24447D01*
X19390Y24433D01*
X19398Y24414D01*
X19409Y24393D01*
X19426Y24365D01*
X19442Y24335D01*
X19458Y24305D01*
X19502Y24234D01*
X19554Y24158D01*
X19609Y24079D01*
X19671Y24005D01*
X19674Y24002D01*
X19680Y23997D01*
X19688Y23986D01*
X19701Y23972D01*
X19718Y23958D01*
X19734Y23939D01*
X19781Y23898D01*
X19830Y23852D01*
X19887Y23806D01*
X19947Y23765D01*
X20010Y23729D01*
Y23530D01*
X17482D01*
Y23838D01*
X19450D01*
X19445Y23844D01*
X19431Y23857D01*
X19412Y23882D01*
X19385Y23918D01*
X19352Y23958D01*
X19316Y24010D01*
X19278Y24068D01*
X19237Y24133D01*
Y24136D01*
X19232Y24141D01*
X19226Y24149D01*
X19221Y24163D01*
X19210Y24180D01*
X19202Y24199D01*
X19177Y24242D01*
X19153Y24292D01*
X19125Y24346D01*
X19101Y24403D01*
X19079Y24458D01*
X19376D01*
X19379Y24455D01*
D02*
G37*
G36*
X87061Y24667D02*
X85606D01*
X85603D01*
X85592D01*
X85576D01*
X85551D01*
X85524Y24664D01*
X85494D01*
X85458Y24661D01*
X85423Y24659D01*
X85343Y24653D01*
X85264Y24642D01*
X85188Y24626D01*
X85152Y24618D01*
X85122Y24607D01*
X85120D01*
X85117Y24604D01*
X85109Y24601D01*
X85098Y24596D01*
X85068Y24580D01*
X85035Y24558D01*
X84994Y24531D01*
X84956Y24495D01*
X84918Y24451D01*
X84882Y24399D01*
Y24397D01*
X84879Y24391D01*
X84874Y24383D01*
X84869Y24372D01*
X84863Y24359D01*
X84858Y24339D01*
X84849Y24320D01*
X84841Y24298D01*
X84828Y24244D01*
X84814Y24181D01*
X84803Y24110D01*
X84800Y24034D01*
Y23998D01*
X84803Y23974D01*
X84806Y23944D01*
X84808Y23908D01*
X84814Y23870D01*
X84822Y23829D01*
X84841Y23744D01*
X84855Y23701D01*
X84871Y23657D01*
X84890Y23616D01*
X84912Y23578D01*
X84937Y23542D01*
X84967Y23509D01*
X84970Y23507D01*
X84975Y23501D01*
X84986Y23496D01*
X85000Y23485D01*
X85019Y23474D01*
X85043Y23460D01*
X85073Y23444D01*
X85109Y23430D01*
X85150Y23417D01*
X85196Y23400D01*
X85248Y23387D01*
X85305Y23376D01*
X85371Y23365D01*
X85442Y23357D01*
X85521Y23354D01*
X85606Y23351D01*
X87061D01*
Y23018D01*
X85606D01*
X85600D01*
X85589D01*
X85570D01*
X85543D01*
X85510Y23021D01*
X85475Y23023D01*
X85434Y23026D01*
X85387Y23029D01*
X85292Y23040D01*
X85191Y23054D01*
X85092Y23075D01*
X85046Y23089D01*
X85002Y23105D01*
X85000D01*
X84991Y23108D01*
X84980Y23114D01*
X84964Y23122D01*
X84945Y23133D01*
X84923Y23144D01*
X84874Y23176D01*
X84844Y23196D01*
X84817Y23217D01*
X84784Y23245D01*
X84754Y23272D01*
X84724Y23305D01*
X84694Y23337D01*
X84667Y23376D01*
X84639Y23417D01*
X84636Y23419D01*
X84634Y23428D01*
X84626Y23438D01*
X84617Y23458D01*
X84606Y23479D01*
X84596Y23507D01*
X84582Y23537D01*
X84571Y23575D01*
X84557Y23613D01*
X84544Y23657D01*
X84533Y23706D01*
X84522Y23758D01*
X84514Y23815D01*
X84505Y23875D01*
X84503Y23938D01*
X84500Y24004D01*
Y24039D01*
X84503Y24064D01*
Y24094D01*
X84505Y24126D01*
X84511Y24167D01*
X84516Y24208D01*
X84530Y24301D01*
X84552Y24399D01*
X84582Y24495D01*
X84598Y24541D01*
X84620Y24585D01*
X84623Y24588D01*
X84626Y24596D01*
X84634Y24607D01*
X84642Y24621D01*
X84656Y24640D01*
X84672Y24661D01*
X84688Y24683D01*
X84710Y24708D01*
X84759Y24762D01*
X84819Y24814D01*
X84890Y24864D01*
X84931Y24885D01*
X84972Y24904D01*
X84975D01*
X84983Y24907D01*
X84997Y24913D01*
X85016Y24918D01*
X85038Y24926D01*
X85068Y24935D01*
X85101Y24943D01*
X85139Y24951D01*
X85182Y24962D01*
X85229Y24970D01*
X85281Y24978D01*
X85338Y24984D01*
X85398Y24992D01*
X85464Y24995D01*
X85532Y25000D01*
X85606D01*
X87061D01*
Y24667D01*
D02*
G37*
G36*
X86438Y22349D02*
X86441Y22341D01*
X86449Y22327D01*
X86457Y22308D01*
X86468Y22286D01*
X86485Y22259D01*
X86501Y22229D01*
X86517Y22199D01*
X86561Y22128D01*
X86613Y22052D01*
X86668Y21972D01*
X86730Y21899D01*
X86733Y21896D01*
X86739Y21891D01*
X86747Y21880D01*
X86760Y21866D01*
X86777Y21852D01*
X86793Y21833D01*
X86840Y21792D01*
X86889Y21746D01*
X86946Y21700D01*
X87006Y21658D01*
X87069Y21623D01*
Y21424D01*
X84541D01*
Y21732D01*
X86509D01*
X86504Y21738D01*
X86490Y21751D01*
X86471Y21776D01*
X86444Y21811D01*
X86411Y21852D01*
X86375Y21904D01*
X86337Y21962D01*
X86296Y22027D01*
Y22030D01*
X86291Y22035D01*
X86285Y22043D01*
X86280Y22057D01*
X86269Y22073D01*
X86261Y22093D01*
X86236Y22136D01*
X86212Y22185D01*
X86184Y22240D01*
X86160Y22297D01*
X86138Y22352D01*
X86436D01*
X86438Y22349D01*
D02*
G37*
G36*
X96786Y10102D02*
X96819Y10099D01*
X96857Y10093D01*
X96898Y10088D01*
X96944Y10080D01*
X96993Y10069D01*
X97045Y10058D01*
X97097Y10042D01*
X97151Y10023D01*
X97206Y10001D01*
X97258Y9973D01*
X97310Y9946D01*
X97359Y9911D01*
X97362Y9908D01*
X97370Y9902D01*
X97384Y9891D01*
X97400Y9875D01*
X97422Y9856D01*
X97446Y9831D01*
X97471Y9804D01*
X97501Y9771D01*
X97531Y9736D01*
X97561Y9695D01*
X97591Y9651D01*
X97618Y9602D01*
X97648Y9550D01*
X97673Y9493D01*
X97698Y9433D01*
X97719Y9370D01*
X97392Y9294D01*
Y9296D01*
X97386Y9305D01*
X97384Y9321D01*
X97375Y9340D01*
X97367Y9362D01*
X97354Y9386D01*
X97326Y9446D01*
X97291Y9512D01*
X97244Y9580D01*
X97195Y9643D01*
X97165Y9670D01*
X97135Y9695D01*
X97132Y9698D01*
X97127Y9700D01*
X97119Y9706D01*
X97105Y9714D01*
X97089Y9725D01*
X97070Y9736D01*
X97048Y9747D01*
X97021Y9758D01*
X96991Y9769D01*
X96960Y9780D01*
X96890Y9801D01*
X96808Y9815D01*
X96764Y9820D01*
X96690D01*
X96668Y9818D01*
X96644Y9815D01*
X96614Y9812D01*
X96581Y9809D01*
X96548Y9804D01*
X96469Y9785D01*
X96387Y9760D01*
X96346Y9744D01*
X96305Y9725D01*
X96267Y9703D01*
X96229Y9679D01*
X96226Y9676D01*
X96221Y9673D01*
X96210Y9665D01*
X96196Y9654D01*
X96182Y9640D01*
X96163Y9621D01*
X96144Y9602D01*
X96122Y9580D01*
X96100Y9553D01*
X96076Y9526D01*
X96032Y9463D01*
X95991Y9389D01*
X95956Y9305D01*
Y9302D01*
X95953Y9294D01*
X95948Y9280D01*
X95945Y9263D01*
X95939Y9242D01*
X95931Y9217D01*
X95926Y9187D01*
X95918Y9157D01*
X95909Y9122D01*
X95904Y9083D01*
X95890Y9001D01*
X95882Y8914D01*
X95879Y8821D01*
Y8818D01*
Y8808D01*
Y8791D01*
X95882Y8767D01*
Y8739D01*
X95885Y8707D01*
X95888Y8671D01*
X95890Y8630D01*
X95896Y8586D01*
X95901Y8543D01*
X95918Y8447D01*
X95942Y8352D01*
X95972Y8259D01*
Y8256D01*
X95978Y8248D01*
X95983Y8237D01*
X95989Y8221D01*
X95999Y8199D01*
X96013Y8177D01*
X96043Y8125D01*
X96084Y8065D01*
X96133Y8008D01*
X96193Y7950D01*
X96226Y7926D01*
X96262Y7901D01*
X96264D01*
X96270Y7896D01*
X96281Y7890D01*
X96297Y7882D01*
X96316Y7874D01*
X96338Y7863D01*
X96363Y7855D01*
X96390Y7844D01*
X96453Y7822D01*
X96526Y7803D01*
X96605Y7789D01*
X96646Y7787D01*
X96690Y7784D01*
X96718D01*
X96737Y7787D01*
X96761Y7789D01*
X96789Y7792D01*
X96821Y7797D01*
X96854Y7803D01*
X96930Y7822D01*
X96969Y7836D01*
X97010Y7852D01*
X97050Y7871D01*
X97089Y7893D01*
X97127Y7918D01*
X97165Y7945D01*
X97168Y7948D01*
X97173Y7953D01*
X97184Y7961D01*
X97198Y7975D01*
X97212Y7991D01*
X97231Y8013D01*
X97250Y8038D01*
X97272Y8065D01*
X97294Y8098D01*
X97315Y8133D01*
X97337Y8172D01*
X97359Y8215D01*
X97378Y8262D01*
X97397Y8314D01*
X97416Y8368D01*
X97430Y8425D01*
X97763Y8341D01*
Y8335D01*
X97758Y8322D01*
X97752Y8303D01*
X97741Y8273D01*
X97730Y8240D01*
X97714Y8199D01*
X97698Y8155D01*
X97676Y8109D01*
X97651Y8057D01*
X97624Y8008D01*
X97594Y7953D01*
X97558Y7901D01*
X97520Y7852D01*
X97479Y7803D01*
X97433Y7757D01*
X97384Y7713D01*
X97381Y7710D01*
X97370Y7705D01*
X97356Y7694D01*
X97334Y7680D01*
X97310Y7664D01*
X97277Y7645D01*
X97242Y7626D01*
X97198Y7606D01*
X97151Y7587D01*
X97102Y7568D01*
X97048Y7549D01*
X96988Y7533D01*
X96925Y7519D01*
X96859Y7508D01*
X96791Y7503D01*
X96718Y7500D01*
X96679D01*
X96649Y7503D01*
X96617Y7505D01*
X96575Y7508D01*
X96532Y7514D01*
X96483Y7522D01*
X96431Y7530D01*
X96376Y7541D01*
X96322Y7555D01*
X96267Y7568D01*
X96210Y7587D01*
X96155Y7609D01*
X96103Y7634D01*
X96054Y7664D01*
X96051Y7666D01*
X96043Y7672D01*
X96030Y7680D01*
X96013Y7694D01*
X95991Y7713D01*
X95967Y7732D01*
X95939Y7757D01*
X95909Y7787D01*
X95879Y7819D01*
X95847Y7855D01*
X95817Y7893D01*
X95784Y7937D01*
X95751Y7983D01*
X95721Y8032D01*
X95694Y8087D01*
X95666Y8144D01*
X95664Y8147D01*
X95661Y8158D01*
X95656Y8177D01*
X95647Y8199D01*
X95636Y8229D01*
X95626Y8262D01*
X95614Y8303D01*
X95601Y8346D01*
X95590Y8395D01*
X95576Y8447D01*
X95565Y8502D01*
X95557Y8562D01*
X95541Y8687D01*
X95538Y8753D01*
X95535Y8818D01*
Y8824D01*
Y8835D01*
Y8857D01*
X95538Y8884D01*
X95541Y8919D01*
X95544Y8961D01*
X95549Y9004D01*
X95555Y9053D01*
X95563Y9105D01*
X95571Y9160D01*
X95598Y9277D01*
X95617Y9335D01*
X95636Y9392D01*
X95658Y9452D01*
X95685Y9506D01*
X95688Y9509D01*
X95694Y9520D01*
X95702Y9534D01*
X95713Y9556D01*
X95729Y9580D01*
X95748Y9607D01*
X95770Y9638D01*
X95795Y9673D01*
X95825Y9706D01*
X95855Y9744D01*
X95890Y9780D01*
X95929Y9818D01*
X95969Y9853D01*
X96013Y9889D01*
X96062Y9922D01*
X96111Y9951D01*
X96114Y9954D01*
X96125Y9957D01*
X96139Y9965D01*
X96161Y9976D01*
X96185Y9987D01*
X96218Y10001D01*
X96253Y10014D01*
X96292Y10028D01*
X96335Y10042D01*
X96384Y10055D01*
X96434Y10069D01*
X96488Y10080D01*
X96600Y10099D01*
X96660Y10102D01*
X96723Y10104D01*
X96758D01*
X96786Y10102D01*
D02*
G37*
G36*
X99213Y7541D02*
X98904D01*
Y9509D01*
X98899Y9504D01*
X98885Y9490D01*
X98861Y9471D01*
X98825Y9444D01*
X98784Y9411D01*
X98732Y9375D01*
X98675Y9337D01*
X98609Y9296D01*
X98607D01*
X98601Y9291D01*
X98593Y9285D01*
X98579Y9280D01*
X98563Y9269D01*
X98544Y9261D01*
X98500Y9236D01*
X98451Y9212D01*
X98396Y9184D01*
X98339Y9160D01*
X98285Y9138D01*
Y9436D01*
X98287Y9438D01*
X98295Y9441D01*
X98309Y9449D01*
X98328Y9457D01*
X98350Y9468D01*
X98377Y9485D01*
X98407Y9501D01*
X98437Y9517D01*
X98508Y9561D01*
X98585Y9613D01*
X98664Y9668D01*
X98738Y9730D01*
X98740Y9733D01*
X98746Y9738D01*
X98757Y9747D01*
X98770Y9760D01*
X98784Y9777D01*
X98803Y9793D01*
X98844Y9840D01*
X98891Y9889D01*
X98937Y9946D01*
X98978Y10006D01*
X99013Y10069D01*
X99213D01*
Y7541D01*
D02*
G37*
G36*
X93786Y47102D02*
X93818Y47099D01*
X93857Y47093D01*
X93898Y47088D01*
X93944Y47080D01*
X93993Y47069D01*
X94045Y47058D01*
X94097Y47042D01*
X94152Y47023D01*
X94206Y47001D01*
X94258Y46973D01*
X94310Y46946D01*
X94359Y46911D01*
X94362Y46908D01*
X94370Y46902D01*
X94384Y46891D01*
X94400Y46875D01*
X94422Y46856D01*
X94446Y46831D01*
X94471Y46804D01*
X94501Y46771D01*
X94531Y46736D01*
X94561Y46695D01*
X94591Y46651D01*
X94618Y46602D01*
X94648Y46550D01*
X94673Y46493D01*
X94697Y46433D01*
X94719Y46370D01*
X94392Y46294D01*
Y46296D01*
X94386Y46305D01*
X94384Y46321D01*
X94375Y46340D01*
X94367Y46362D01*
X94354Y46386D01*
X94326Y46446D01*
X94291Y46512D01*
X94244Y46580D01*
X94195Y46643D01*
X94165Y46670D01*
X94135Y46695D01*
X94132Y46698D01*
X94127Y46700D01*
X94119Y46706D01*
X94105Y46714D01*
X94089Y46725D01*
X94070Y46736D01*
X94048Y46747D01*
X94020Y46758D01*
X93990Y46769D01*
X93960Y46780D01*
X93889Y46801D01*
X93808Y46815D01*
X93764Y46820D01*
X93690D01*
X93668Y46818D01*
X93644Y46815D01*
X93614Y46812D01*
X93581Y46810D01*
X93548Y46804D01*
X93469Y46785D01*
X93387Y46760D01*
X93346Y46744D01*
X93305Y46725D01*
X93267Y46703D01*
X93229Y46679D01*
X93226Y46676D01*
X93221Y46673D01*
X93210Y46665D01*
X93196Y46654D01*
X93182Y46640D01*
X93163Y46621D01*
X93144Y46602D01*
X93122Y46580D01*
X93101Y46553D01*
X93076Y46526D01*
X93032Y46463D01*
X92991Y46389D01*
X92956Y46305D01*
Y46302D01*
X92953Y46294D01*
X92948Y46280D01*
X92945Y46264D01*
X92939Y46242D01*
X92931Y46217D01*
X92926Y46187D01*
X92918Y46157D01*
X92909Y46122D01*
X92904Y46083D01*
X92890Y46001D01*
X92882Y45914D01*
X92879Y45821D01*
Y45818D01*
Y45808D01*
Y45791D01*
X92882Y45767D01*
Y45739D01*
X92885Y45707D01*
X92888Y45671D01*
X92890Y45630D01*
X92896Y45586D01*
X92901Y45543D01*
X92918Y45447D01*
X92942Y45352D01*
X92972Y45259D01*
Y45256D01*
X92978Y45248D01*
X92983Y45237D01*
X92989Y45221D01*
X93000Y45199D01*
X93013Y45177D01*
X93043Y45125D01*
X93084Y45065D01*
X93133Y45008D01*
X93193Y44950D01*
X93226Y44926D01*
X93262Y44901D01*
X93264D01*
X93270Y44896D01*
X93281Y44890D01*
X93297Y44882D01*
X93316Y44874D01*
X93338Y44863D01*
X93363Y44855D01*
X93390Y44844D01*
X93453Y44822D01*
X93526Y44803D01*
X93606Y44789D01*
X93647Y44787D01*
X93690Y44784D01*
X93717D01*
X93737Y44787D01*
X93761Y44789D01*
X93788Y44792D01*
X93821Y44798D01*
X93854Y44803D01*
X93930Y44822D01*
X93969Y44836D01*
X94010Y44852D01*
X94051Y44871D01*
X94089Y44893D01*
X94127Y44918D01*
X94165Y44945D01*
X94168Y44948D01*
X94173Y44953D01*
X94184Y44961D01*
X94198Y44975D01*
X94212Y44991D01*
X94231Y45013D01*
X94250Y45038D01*
X94272Y45065D01*
X94293Y45098D01*
X94315Y45133D01*
X94337Y45171D01*
X94359Y45215D01*
X94378Y45262D01*
X94397Y45314D01*
X94416Y45368D01*
X94430Y45425D01*
X94763Y45341D01*
Y45335D01*
X94758Y45322D01*
X94752Y45303D01*
X94741Y45272D01*
X94730Y45240D01*
X94714Y45199D01*
X94697Y45155D01*
X94676Y45109D01*
X94651Y45057D01*
X94624Y45008D01*
X94594Y44953D01*
X94558Y44901D01*
X94520Y44852D01*
X94479Y44803D01*
X94433Y44757D01*
X94384Y44713D01*
X94381Y44710D01*
X94370Y44705D01*
X94356Y44694D01*
X94335Y44680D01*
X94310Y44664D01*
X94277Y44645D01*
X94242Y44625D01*
X94198Y44606D01*
X94152Y44587D01*
X94102Y44568D01*
X94048Y44549D01*
X93988Y44533D01*
X93925Y44519D01*
X93859Y44508D01*
X93791Y44503D01*
X93717Y44500D01*
X93679D01*
X93649Y44503D01*
X93616Y44505D01*
X93576Y44508D01*
X93532Y44514D01*
X93483Y44522D01*
X93431Y44530D01*
X93376Y44541D01*
X93322Y44555D01*
X93267Y44568D01*
X93210Y44587D01*
X93155Y44609D01*
X93103Y44634D01*
X93054Y44664D01*
X93051Y44666D01*
X93043Y44672D01*
X93029Y44680D01*
X93013Y44694D01*
X92991Y44713D01*
X92967Y44732D01*
X92939Y44757D01*
X92909Y44787D01*
X92879Y44819D01*
X92847Y44855D01*
X92817Y44893D01*
X92784Y44937D01*
X92751Y44983D01*
X92721Y45032D01*
X92694Y45087D01*
X92666Y45144D01*
X92664Y45147D01*
X92661Y45158D01*
X92655Y45177D01*
X92647Y45199D01*
X92636Y45229D01*
X92625Y45262D01*
X92615Y45303D01*
X92601Y45346D01*
X92590Y45395D01*
X92576Y45447D01*
X92565Y45502D01*
X92557Y45562D01*
X92541Y45687D01*
X92538Y45753D01*
X92535Y45818D01*
Y45824D01*
Y45835D01*
Y45857D01*
X92538Y45884D01*
X92541Y45919D01*
X92544Y45961D01*
X92549Y46004D01*
X92554Y46053D01*
X92563Y46105D01*
X92571Y46160D01*
X92598Y46277D01*
X92617Y46334D01*
X92636Y46392D01*
X92658Y46452D01*
X92686Y46507D01*
X92688Y46509D01*
X92694Y46520D01*
X92702Y46534D01*
X92713Y46556D01*
X92729Y46580D01*
X92748Y46608D01*
X92770Y46637D01*
X92795Y46673D01*
X92825Y46706D01*
X92855Y46744D01*
X92890Y46780D01*
X92928Y46818D01*
X92969Y46853D01*
X93013Y46889D01*
X93062Y46922D01*
X93111Y46951D01*
X93114Y46954D01*
X93125Y46957D01*
X93139Y46965D01*
X93161Y46976D01*
X93185Y46987D01*
X93218Y47001D01*
X93253Y47014D01*
X93292Y47028D01*
X93335Y47042D01*
X93384Y47055D01*
X93434Y47069D01*
X93488Y47080D01*
X93600Y47099D01*
X93660Y47102D01*
X93723Y47104D01*
X93758D01*
X93786Y47102D01*
D02*
G37*
G36*
X95942Y47066D02*
X95973Y47063D01*
X96008Y47058D01*
X96049Y47052D01*
X96090Y47044D01*
X96136Y47033D01*
X96183Y47020D01*
X96232Y47003D01*
X96278Y46984D01*
X96327Y46960D01*
X96374Y46932D01*
X96417Y46902D01*
X96458Y46867D01*
X96461Y46864D01*
X96467Y46859D01*
X96478Y46845D01*
X96491Y46831D01*
X96508Y46812D01*
X96527Y46788D01*
X96546Y46760D01*
X96565Y46728D01*
X96584Y46695D01*
X96603Y46657D01*
X96622Y46616D01*
X96639Y46572D01*
X96652Y46523D01*
X96663Y46474D01*
X96669Y46422D01*
X96671Y46367D01*
Y46365D01*
Y46362D01*
Y46354D01*
Y46343D01*
X96669Y46313D01*
X96663Y46275D01*
X96655Y46228D01*
X96644Y46179D01*
X96630Y46124D01*
X96609Y46070D01*
Y46067D01*
X96606Y46064D01*
X96603Y46056D01*
X96598Y46045D01*
X96581Y46015D01*
X96559Y45977D01*
X96529Y45930D01*
X96494Y45879D01*
X96453Y45824D01*
X96401Y45764D01*
X96398Y45761D01*
X96396Y45756D01*
X96385Y45748D01*
X96374Y45734D01*
X96357Y45717D01*
X96338Y45698D01*
X96316Y45674D01*
X96289Y45649D01*
X96256Y45619D01*
X96221Y45586D01*
X96183Y45548D01*
X96139Y45510D01*
X96093Y45466D01*
X96041Y45423D01*
X95983Y45374D01*
X95923Y45322D01*
X95921Y45319D01*
X95912Y45311D01*
X95896Y45300D01*
X95880Y45283D01*
X95855Y45264D01*
X95831Y45243D01*
X95773Y45193D01*
X95713Y45142D01*
X95656Y45087D01*
X95628Y45062D01*
X95604Y45041D01*
X95582Y45019D01*
X95566Y45002D01*
X95563Y45000D01*
X95552Y44989D01*
X95538Y44972D01*
X95519Y44950D01*
X95497Y44926D01*
X95476Y44899D01*
X95432Y44839D01*
X96674D01*
Y44541D01*
X95006D01*
Y44546D01*
Y44560D01*
Y44582D01*
X95009Y44609D01*
X95012Y44642D01*
X95020Y44677D01*
X95028Y44716D01*
X95042Y44754D01*
Y44757D01*
X95044Y44762D01*
X95047Y44770D01*
X95052Y44784D01*
X95061Y44798D01*
X95069Y44817D01*
X95091Y44860D01*
X95118Y44912D01*
X95153Y44969D01*
X95194Y45030D01*
X95244Y45090D01*
X95246Y45092D01*
X95249Y45098D01*
X95257Y45106D01*
X95271Y45120D01*
X95284Y45133D01*
X95304Y45152D01*
X95323Y45174D01*
X95347Y45199D01*
X95375Y45226D01*
X95405Y45253D01*
X95437Y45286D01*
X95476Y45319D01*
X95514Y45354D01*
X95557Y45390D01*
X95601Y45428D01*
X95650Y45469D01*
X95656Y45472D01*
X95669Y45485D01*
X95688Y45502D01*
X95716Y45526D01*
X95749Y45554D01*
X95787Y45586D01*
X95831Y45622D01*
X95874Y45663D01*
X95967Y45748D01*
X96057Y45838D01*
X96101Y45881D01*
X96142Y45925D01*
X96177Y45966D01*
X96207Y46004D01*
X96210Y46007D01*
X96213Y46012D01*
X96221Y46023D01*
X96229Y46037D01*
X96243Y46056D01*
X96254Y46075D01*
X96281Y46124D01*
X96308Y46182D01*
X96333Y46244D01*
X96349Y46310D01*
X96352Y46343D01*
X96355Y46376D01*
Y46378D01*
Y46384D01*
Y46395D01*
X96352Y46406D01*
Y46422D01*
X96346Y46441D01*
X96338Y46482D01*
X96322Y46531D01*
X96297Y46583D01*
X96284Y46610D01*
X96265Y46635D01*
X96245Y46659D01*
X96221Y46684D01*
X96218Y46687D01*
X96215Y46689D01*
X96207Y46695D01*
X96196Y46703D01*
X96183Y46714D01*
X96166Y46725D01*
X96128Y46749D01*
X96076Y46771D01*
X96019Y46793D01*
X95951Y46807D01*
X95912Y46812D01*
X95852D01*
X95836Y46810D01*
X95817D01*
X95795Y46804D01*
X95746Y46796D01*
X95688Y46780D01*
X95628Y46755D01*
X95598Y46738D01*
X95568Y46722D01*
X95541Y46700D01*
X95514Y46676D01*
X95511Y46673D01*
X95508Y46670D01*
X95503Y46662D01*
X95492Y46651D01*
X95484Y46637D01*
X95473Y46621D01*
X95459Y46602D01*
X95448Y46580D01*
X95435Y46556D01*
X95424Y46528D01*
X95402Y46463D01*
X95385Y46392D01*
X95383Y46351D01*
X95380Y46307D01*
X95063Y46340D01*
Y46345D01*
X95066Y46356D01*
X95069Y46373D01*
X95072Y46397D01*
X95077Y46427D01*
X95085Y46463D01*
X95093Y46501D01*
X95107Y46542D01*
X95121Y46583D01*
X95137Y46629D01*
X95159Y46673D01*
X95181Y46717D01*
X95208Y46763D01*
X95238Y46804D01*
X95271Y46845D01*
X95309Y46880D01*
X95312Y46883D01*
X95320Y46889D01*
X95331Y46897D01*
X95347Y46911D01*
X95369Y46924D01*
X95396Y46941D01*
X95426Y46957D01*
X95462Y46976D01*
X95500Y46992D01*
X95544Y47009D01*
X95590Y47025D01*
X95642Y47039D01*
X95697Y47052D01*
X95754Y47061D01*
X95817Y47066D01*
X95882Y47069D01*
X95918D01*
X95942Y47066D01*
D02*
G37*
G36*
X108246Y29936D02*
X109106Y28721D01*
X108710D01*
X108249Y29368D01*
X108246Y29371D01*
X108243Y29377D01*
X108235Y29388D01*
X108224Y29401D01*
X108213Y29417D01*
X108199Y29437D01*
X108169Y29480D01*
X108137Y29532D01*
X108104Y29581D01*
X108071Y29633D01*
X108047Y29677D01*
Y29674D01*
X108044Y29671D01*
X108038Y29663D01*
X108030Y29652D01*
X108014Y29628D01*
X107989Y29592D01*
X107959Y29548D01*
X107926Y29499D01*
X107886Y29447D01*
X107844Y29393D01*
X107342Y28721D01*
X106979D01*
X107855Y29920D01*
X106911Y31241D01*
X107318D01*
X107957Y30343D01*
X107959Y30340D01*
X107965Y30329D01*
X107976Y30316D01*
X107989Y30294D01*
X108006Y30272D01*
X108022Y30247D01*
X108060Y30190D01*
Y30193D01*
X108063Y30196D01*
X108074Y30212D01*
X108088Y30234D01*
X108107Y30261D01*
X108148Y30318D01*
X108164Y30346D01*
X108180Y30367D01*
X108819Y31241D01*
X109221D01*
X108246Y29936D01*
D02*
G37*
G36*
X111500Y28721D02*
X110329D01*
X110299Y28724D01*
X110269D01*
X110233Y28727D01*
X110192Y28730D01*
X110110Y28738D01*
X110026Y28751D01*
X109944Y28768D01*
X109908Y28779D01*
X109873Y28790D01*
X109870D01*
X109865Y28792D01*
X109856Y28798D01*
X109843Y28803D01*
X109810Y28820D01*
X109772Y28844D01*
X109725Y28877D01*
X109679Y28921D01*
X109633Y28970D01*
X109592Y29030D01*
Y29032D01*
X109586Y29038D01*
X109581Y29046D01*
X109575Y29060D01*
X109567Y29076D01*
X109559Y29095D01*
X109548Y29117D01*
X109537Y29142D01*
X109518Y29199D01*
X109502Y29262D01*
X109491Y29333D01*
X109485Y29409D01*
Y29412D01*
Y29420D01*
Y29437D01*
X109488Y29453D01*
X109491Y29478D01*
X109494Y29505D01*
X109499Y29535D01*
X109507Y29568D01*
X109529Y29639D01*
X109543Y29677D01*
X109559Y29715D01*
X109578Y29753D01*
X109603Y29792D01*
X109630Y29827D01*
X109660Y29862D01*
X109663Y29865D01*
X109668Y29871D01*
X109679Y29879D01*
X109693Y29893D01*
X109712Y29906D01*
X109734Y29923D01*
X109761Y29942D01*
X109794Y29961D01*
X109829Y29980D01*
X109868Y29999D01*
X109911Y30018D01*
X109960Y30037D01*
X110012Y30054D01*
X110070Y30070D01*
X110132Y30084D01*
X110198Y30095D01*
X110195D01*
X110192Y30097D01*
X110176Y30105D01*
X110151Y30119D01*
X110121Y30136D01*
X110089Y30155D01*
X110056Y30174D01*
X110023Y30198D01*
X109996Y30220D01*
X109993Y30223D01*
X109990Y30226D01*
X109982Y30234D01*
X109971Y30245D01*
X109958Y30258D01*
X109941Y30275D01*
X109906Y30313D01*
X109865Y30362D01*
X109818Y30419D01*
X109769Y30485D01*
X109720Y30556D01*
X109283Y31241D01*
X109701D01*
X110034Y30717D01*
X110037Y30714D01*
X110039Y30706D01*
X110048Y30695D01*
X110059Y30679D01*
X110070Y30660D01*
X110086Y30638D01*
X110119Y30589D01*
X110157Y30531D01*
X110195Y30474D01*
X110236Y30419D01*
X110274Y30370D01*
Y30367D01*
X110280Y30365D01*
X110291Y30351D01*
X110307Y30329D01*
X110332Y30305D01*
X110356Y30277D01*
X110386Y30250D01*
X110416Y30223D01*
X110443Y30204D01*
X110446Y30201D01*
X110457Y30196D01*
X110471Y30187D01*
X110490Y30176D01*
X110514Y30165D01*
X110539Y30155D01*
X110566Y30144D01*
X110596Y30136D01*
X110599D01*
X110607Y30133D01*
X110621Y30130D01*
X110640Y30127D01*
X110667D01*
X110700Y30125D01*
X110738Y30122D01*
X111167D01*
Y31241D01*
X111500D01*
Y28721D01*
D02*
G37*
G36*
X108898Y17936D02*
X109758Y16721D01*
X109362D01*
X108901Y17368D01*
X108898Y17371D01*
X108895Y17377D01*
X108887Y17388D01*
X108876Y17401D01*
X108865Y17417D01*
X108852Y17437D01*
X108821Y17480D01*
X108789Y17532D01*
X108756Y17581D01*
X108723Y17633D01*
X108699Y17677D01*
Y17674D01*
X108696Y17671D01*
X108690Y17663D01*
X108682Y17652D01*
X108666Y17628D01*
X108641Y17592D01*
X108611Y17549D01*
X108579Y17499D01*
X108537Y17447D01*
X108497Y17393D01*
X107994Y16721D01*
X107631D01*
X108508Y17920D01*
X107563Y19241D01*
X107970D01*
X108608Y18343D01*
X108611Y18340D01*
X108617Y18329D01*
X108628Y18316D01*
X108641Y18294D01*
X108658Y18272D01*
X108674Y18247D01*
X108712Y18190D01*
Y18193D01*
X108715Y18195D01*
X108726Y18212D01*
X108740Y18234D01*
X108759Y18261D01*
X108800Y18318D01*
X108816Y18346D01*
X108832Y18368D01*
X109471Y19241D01*
X109872D01*
X108898Y17936D01*
D02*
G37*
G36*
X111123Y17019D02*
X111953D01*
Y16721D01*
X109960D01*
Y17019D01*
X110790D01*
Y19241D01*
X111123D01*
Y17019D01*
D02*
G37*
G36*
X41897Y45290D02*
X42500D01*
Y44982D01*
X41897D01*
Y43884D01*
X41613D01*
X39980Y45036D01*
Y45290D01*
X41613D01*
Y45631D01*
X41897D01*
Y45290D01*
D02*
G37*
G36*
X42500Y43376D02*
X41976Y43043D01*
X41973Y43040D01*
X41965Y43038D01*
X41954Y43029D01*
X41938Y43019D01*
X41919Y43008D01*
X41897Y42991D01*
X41848Y42959D01*
X41790Y42920D01*
X41733Y42882D01*
X41678Y42841D01*
X41629Y42803D01*
X41626D01*
X41624Y42797D01*
X41610Y42786D01*
X41588Y42770D01*
X41564Y42746D01*
X41536Y42721D01*
X41509Y42691D01*
X41482Y42661D01*
X41463Y42634D01*
X41460Y42631D01*
X41454Y42620D01*
X41446Y42606D01*
X41435Y42587D01*
X41424Y42563D01*
X41414Y42538D01*
X41403Y42511D01*
X41394Y42481D01*
Y42478D01*
X41392Y42470D01*
X41389Y42456D01*
X41386Y42437D01*
Y42410D01*
X41383Y42377D01*
X41381Y42339D01*
Y41910D01*
X42500D01*
Y41577D01*
X39980D01*
Y42748D01*
X39983Y42778D01*
Y42808D01*
X39986Y42844D01*
X39988Y42885D01*
X39997Y42967D01*
X40010Y43051D01*
X40027Y43133D01*
X40038Y43169D01*
X40049Y43204D01*
Y43207D01*
X40051Y43212D01*
X40057Y43221D01*
X40062Y43234D01*
X40078Y43267D01*
X40103Y43305D01*
X40136Y43352D01*
X40180Y43398D01*
X40229Y43444D01*
X40289Y43485D01*
X40292D01*
X40297Y43491D01*
X40305Y43496D01*
X40319Y43502D01*
X40335Y43510D01*
X40354Y43518D01*
X40376Y43529D01*
X40401Y43540D01*
X40458Y43559D01*
X40521Y43576D01*
X40592Y43586D01*
X40668Y43592D01*
X40671D01*
X40679D01*
X40696D01*
X40712Y43589D01*
X40736Y43586D01*
X40764Y43584D01*
X40794Y43578D01*
X40827Y43570D01*
X40898Y43548D01*
X40936Y43535D01*
X40974Y43518D01*
X41012Y43499D01*
X41050Y43475D01*
X41086Y43447D01*
X41121Y43417D01*
X41124Y43414D01*
X41130Y43409D01*
X41138Y43398D01*
X41151Y43384D01*
X41165Y43365D01*
X41181Y43343D01*
X41201Y43316D01*
X41220Y43283D01*
X41239Y43248D01*
X41258Y43210D01*
X41277Y43166D01*
X41296Y43117D01*
X41313Y43065D01*
X41329Y43008D01*
X41342Y42945D01*
X41353Y42879D01*
Y42882D01*
X41356Y42885D01*
X41364Y42901D01*
X41378Y42926D01*
X41394Y42956D01*
X41414Y42988D01*
X41433Y43021D01*
X41457Y43054D01*
X41479Y43081D01*
X41482Y43084D01*
X41484Y43087D01*
X41493Y43095D01*
X41504Y43106D01*
X41517Y43120D01*
X41534Y43136D01*
X41572Y43172D01*
X41621Y43212D01*
X41678Y43259D01*
X41744Y43308D01*
X41815Y43357D01*
X42500Y43794D01*
Y43376D01*
D02*
G37*
G36*
X82250Y10104D02*
X82283Y10102D01*
X82321Y10096D01*
X82362Y10091D01*
X82409Y10082D01*
X82458Y10072D01*
X82510Y10061D01*
X82561Y10044D01*
X82616Y10025D01*
X82671Y10003D01*
X82723Y9976D01*
X82775Y9949D01*
X82824Y9913D01*
X82826Y9911D01*
X82835Y9905D01*
X82848Y9894D01*
X82864Y9878D01*
X82886Y9859D01*
X82911Y9834D01*
X82936Y9807D01*
X82965Y9774D01*
X82996Y9738D01*
X83026Y9698D01*
X83056Y9654D01*
X83083Y9605D01*
X83113Y9553D01*
X83138Y9496D01*
X83162Y9436D01*
X83184Y9373D01*
X82856Y9296D01*
Y9299D01*
X82851Y9307D01*
X82848Y9324D01*
X82840Y9343D01*
X82832Y9364D01*
X82818Y9389D01*
X82791Y9449D01*
X82755Y9515D01*
X82709Y9583D01*
X82660Y9646D01*
X82630Y9673D01*
X82600Y9698D01*
X82597Y9700D01*
X82591Y9703D01*
X82583Y9708D01*
X82570Y9717D01*
X82553Y9728D01*
X82534Y9738D01*
X82512Y9749D01*
X82485Y9760D01*
X82455Y9771D01*
X82425Y9782D01*
X82354Y9804D01*
X82272Y9818D01*
X82228Y9823D01*
X82155D01*
X82133Y9820D01*
X82108Y9818D01*
X82078Y9815D01*
X82046Y9812D01*
X82013Y9807D01*
X81934Y9788D01*
X81852Y9763D01*
X81811Y9747D01*
X81770Y9728D01*
X81732Y9706D01*
X81693Y9681D01*
X81691Y9679D01*
X81685Y9676D01*
X81674Y9668D01*
X81661Y9657D01*
X81647Y9643D01*
X81628Y9624D01*
X81609Y9605D01*
X81587Y9583D01*
X81565Y9556D01*
X81541Y9528D01*
X81497Y9466D01*
X81456Y9392D01*
X81420Y9307D01*
Y9305D01*
X81418Y9296D01*
X81412Y9283D01*
X81410Y9266D01*
X81404Y9244D01*
X81396Y9220D01*
X81390Y9190D01*
X81382Y9160D01*
X81374Y9124D01*
X81368Y9086D01*
X81355Y9004D01*
X81347Y8917D01*
X81344Y8824D01*
Y8821D01*
Y8810D01*
Y8794D01*
X81347Y8769D01*
Y8742D01*
X81349Y8709D01*
X81352Y8674D01*
X81355Y8633D01*
X81360Y8589D01*
X81366Y8546D01*
X81382Y8450D01*
X81407Y8354D01*
X81437Y8262D01*
Y8259D01*
X81442Y8251D01*
X81448Y8240D01*
X81453Y8223D01*
X81464Y8202D01*
X81478Y8180D01*
X81508Y8128D01*
X81549Y8068D01*
X81598Y8010D01*
X81658Y7953D01*
X81691Y7929D01*
X81726Y7904D01*
X81729D01*
X81734Y7898D01*
X81745Y7893D01*
X81762Y7885D01*
X81781Y7877D01*
X81803Y7866D01*
X81827Y7858D01*
X81854Y7847D01*
X81917Y7825D01*
X81991Y7806D01*
X82070Y7792D01*
X82111Y7789D01*
X82155Y7787D01*
X82182D01*
X82201Y7789D01*
X82226Y7792D01*
X82253Y7795D01*
X82286Y7800D01*
X82319Y7806D01*
X82395Y7825D01*
X82433Y7839D01*
X82474Y7855D01*
X82515Y7874D01*
X82553Y7896D01*
X82591Y7920D01*
X82630Y7948D01*
X82632Y7950D01*
X82638Y7956D01*
X82649Y7964D01*
X82662Y7978D01*
X82676Y7994D01*
X82695Y8016D01*
X82714Y8040D01*
X82736Y8068D01*
X82758Y8100D01*
X82780Y8136D01*
X82802Y8174D01*
X82824Y8218D01*
X82843Y8264D01*
X82862Y8316D01*
X82881Y8371D01*
X82895Y8428D01*
X83228Y8343D01*
Y8338D01*
X83222Y8324D01*
X83217Y8305D01*
X83206Y8275D01*
X83195Y8242D01*
X83179Y8202D01*
X83162Y8158D01*
X83140Y8111D01*
X83116Y8060D01*
X83088Y8010D01*
X83058Y7956D01*
X83023Y7904D01*
X82985Y7855D01*
X82944Y7806D01*
X82897Y7759D01*
X82848Y7716D01*
X82845Y7713D01*
X82835Y7707D01*
X82821Y7696D01*
X82799Y7683D01*
X82775Y7666D01*
X82742Y7647D01*
X82706Y7628D01*
X82662Y7609D01*
X82616Y7590D01*
X82567Y7571D01*
X82512Y7552D01*
X82452Y7535D01*
X82389Y7522D01*
X82324Y7511D01*
X82256Y7505D01*
X82182Y7503D01*
X82144D01*
X82114Y7505D01*
X82081Y7508D01*
X82040Y7511D01*
X81996Y7516D01*
X81947Y7525D01*
X81895Y7533D01*
X81841Y7544D01*
X81786Y7557D01*
X81732Y7571D01*
X81674Y7590D01*
X81620Y7612D01*
X81568Y7637D01*
X81519Y7666D01*
X81516Y7669D01*
X81508Y7675D01*
X81494Y7683D01*
X81478Y7696D01*
X81456Y7716D01*
X81431Y7735D01*
X81404Y7759D01*
X81374Y7789D01*
X81344Y7822D01*
X81311Y7858D01*
X81281Y7896D01*
X81248Y7940D01*
X81216Y7986D01*
X81186Y8035D01*
X81158Y8090D01*
X81131Y8147D01*
X81128Y8150D01*
X81125Y8161D01*
X81120Y8180D01*
X81112Y8202D01*
X81101Y8232D01*
X81090Y8264D01*
X81079Y8305D01*
X81065Y8349D01*
X81055Y8398D01*
X81041Y8450D01*
X81030Y8505D01*
X81022Y8565D01*
X81005Y8690D01*
X81003Y8756D01*
X81000Y8821D01*
Y8827D01*
Y8838D01*
Y8860D01*
X81003Y8887D01*
X81005Y8922D01*
X81008Y8963D01*
X81014Y9007D01*
X81019Y9056D01*
X81027Y9108D01*
X81035Y9162D01*
X81063Y9280D01*
X81082Y9337D01*
X81101Y9395D01*
X81123Y9455D01*
X81150Y9509D01*
X81153Y9512D01*
X81158Y9523D01*
X81166Y9537D01*
X81177Y9558D01*
X81194Y9583D01*
X81213Y9610D01*
X81235Y9640D01*
X81259Y9676D01*
X81289Y9708D01*
X81319Y9747D01*
X81355Y9782D01*
X81393Y9820D01*
X81434Y9856D01*
X81478Y9891D01*
X81527Y9924D01*
X81576Y9954D01*
X81579Y9957D01*
X81590Y9960D01*
X81603Y9968D01*
X81625Y9979D01*
X81650Y9990D01*
X81682Y10003D01*
X81718Y10017D01*
X81756Y10031D01*
X81800Y10044D01*
X81849Y10058D01*
X81898Y10072D01*
X81953Y10082D01*
X82065Y10102D01*
X82125Y10104D01*
X82187Y10107D01*
X82223D01*
X82250Y10104D01*
D02*
G37*
G36*
X84355Y10069D02*
X84374Y10066D01*
X84426Y10061D01*
X84483Y10050D01*
X84549Y10033D01*
X84614Y10012D01*
X84680Y9982D01*
X84683D01*
X84688Y9979D01*
X84696Y9973D01*
X84710Y9965D01*
X84740Y9946D01*
X84778Y9919D01*
X84822Y9883D01*
X84866Y9842D01*
X84909Y9796D01*
X84948Y9741D01*
Y9738D01*
X84950Y9736D01*
X84956Y9725D01*
X84961Y9714D01*
X84969Y9700D01*
X84978Y9684D01*
X84994Y9643D01*
X85010Y9594D01*
X85027Y9539D01*
X85038Y9479D01*
X85040Y9416D01*
Y9414D01*
Y9408D01*
Y9400D01*
Y9389D01*
X85035Y9356D01*
X85029Y9318D01*
X85018Y9272D01*
X85002Y9223D01*
X84980Y9171D01*
X84950Y9119D01*
Y9116D01*
X84948Y9113D01*
X84934Y9097D01*
X84915Y9072D01*
X84885Y9042D01*
X84849Y9007D01*
X84803Y8971D01*
X84751Y8939D01*
X84691Y8906D01*
X84694D01*
X84702Y8903D01*
X84713Y8900D01*
X84729Y8895D01*
X84746Y8890D01*
X84767Y8881D01*
X84819Y8860D01*
X84874Y8829D01*
X84931Y8794D01*
X84988Y8748D01*
X85038Y8690D01*
X85040Y8687D01*
X85043Y8682D01*
X85049Y8674D01*
X85057Y8660D01*
X85068Y8647D01*
X85079Y8627D01*
X85089Y8606D01*
X85100Y8578D01*
X85111Y8551D01*
X85122Y8521D01*
X85144Y8453D01*
X85158Y8374D01*
X85163Y8330D01*
Y8286D01*
Y8283D01*
Y8273D01*
X85160Y8253D01*
Y8232D01*
X85155Y8202D01*
X85150Y8169D01*
X85144Y8133D01*
X85133Y8092D01*
X85119Y8049D01*
X85103Y8005D01*
X85084Y7959D01*
X85059Y7912D01*
X85032Y7863D01*
X84999Y7817D01*
X84964Y7770D01*
X84920Y7727D01*
X84917Y7724D01*
X84909Y7716D01*
X84896Y7705D01*
X84877Y7691D01*
X84855Y7675D01*
X84825Y7656D01*
X84792Y7634D01*
X84754Y7615D01*
X84713Y7593D01*
X84666Y7571D01*
X84617Y7552D01*
X84563Y7535D01*
X84505Y7522D01*
X84445Y7511D01*
X84382Y7503D01*
X84314Y7500D01*
X84301D01*
X84281Y7503D01*
X84260D01*
X84229Y7505D01*
X84197Y7511D01*
X84161Y7516D01*
X84120Y7525D01*
X84077Y7535D01*
X84033Y7549D01*
X83987Y7563D01*
X83940Y7582D01*
X83894Y7606D01*
X83850Y7631D01*
X83804Y7661D01*
X83763Y7696D01*
X83760Y7699D01*
X83754Y7705D01*
X83744Y7716D01*
X83727Y7732D01*
X83711Y7751D01*
X83692Y7776D01*
X83673Y7803D01*
X83651Y7836D01*
X83629Y7869D01*
X83607Y7909D01*
X83585Y7950D01*
X83566Y7997D01*
X83550Y8046D01*
X83533Y8098D01*
X83522Y8152D01*
X83514Y8210D01*
X83823Y8251D01*
Y8248D01*
X83825Y8240D01*
X83828Y8226D01*
X83834Y8207D01*
X83839Y8185D01*
X83845Y8161D01*
X83864Y8103D01*
X83888Y8040D01*
X83918Y7978D01*
X83956Y7920D01*
X83978Y7896D01*
X84000Y7871D01*
X84003D01*
X84006Y7866D01*
X84014Y7860D01*
X84022Y7852D01*
X84049Y7836D01*
X84088Y7814D01*
X84134Y7792D01*
X84186Y7776D01*
X84249Y7762D01*
X84314Y7757D01*
X84336D01*
X84352Y7759D01*
X84369Y7762D01*
X84393Y7765D01*
X84443Y7776D01*
X84503Y7792D01*
X84565Y7819D01*
X84595Y7839D01*
X84625Y7858D01*
X84655Y7879D01*
X84685Y7907D01*
X84688Y7909D01*
X84691Y7915D01*
X84699Y7923D01*
X84710Y7934D01*
X84721Y7948D01*
X84732Y7967D01*
X84746Y7986D01*
X84762Y8010D01*
X84789Y8065D01*
X84811Y8128D01*
X84830Y8202D01*
X84833Y8240D01*
X84836Y8281D01*
Y8283D01*
Y8289D01*
Y8303D01*
X84833Y8316D01*
X84830Y8335D01*
X84827Y8354D01*
X84819Y8404D01*
X84800Y8461D01*
X84776Y8518D01*
X84759Y8548D01*
X84740Y8576D01*
X84718Y8603D01*
X84694Y8630D01*
X84691Y8633D01*
X84688Y8636D01*
X84680Y8644D01*
X84669Y8652D01*
X84655Y8663D01*
X84639Y8674D01*
X84598Y8701D01*
X84546Y8726D01*
X84486Y8748D01*
X84418Y8764D01*
X84380Y8767D01*
X84342Y8769D01*
X84325D01*
X84306Y8767D01*
X84281D01*
X84249Y8761D01*
X84213Y8756D01*
X84170Y8748D01*
X84123Y8737D01*
X84156Y9007D01*
X84161D01*
X84175Y9004D01*
X84191Y9001D01*
X84227D01*
X84241Y9004D01*
X84260D01*
X84279Y9007D01*
X84325Y9015D01*
X84380Y9026D01*
X84440Y9045D01*
X84503Y9070D01*
X84563Y9105D01*
X84565D01*
X84571Y9111D01*
X84576Y9116D01*
X84587Y9124D01*
X84614Y9149D01*
X84645Y9184D01*
X84672Y9228D01*
X84699Y9283D01*
X84710Y9313D01*
X84715Y9348D01*
X84721Y9384D01*
X84724Y9422D01*
Y9425D01*
Y9430D01*
Y9438D01*
X84721Y9452D01*
X84718Y9482D01*
X84710Y9523D01*
X84696Y9567D01*
X84675Y9613D01*
X84645Y9662D01*
X84628Y9684D01*
X84606Y9706D01*
X84601Y9711D01*
X84584Y9722D01*
X84560Y9741D01*
X84527Y9763D01*
X84483Y9782D01*
X84432Y9801D01*
X84374Y9812D01*
X84309Y9818D01*
X84292D01*
X84279Y9815D01*
X84262D01*
X84246Y9812D01*
X84202Y9804D01*
X84156Y9790D01*
X84104Y9769D01*
X84055Y9741D01*
X84006Y9703D01*
X84000Y9698D01*
X83987Y9681D01*
X83965Y9657D01*
X83943Y9618D01*
X83916Y9572D01*
X83891Y9512D01*
X83869Y9444D01*
X83853Y9364D01*
X83544Y9419D01*
Y9422D01*
X83547Y9433D01*
X83550Y9449D01*
X83555Y9471D01*
X83563Y9496D01*
X83572Y9526D01*
X83583Y9558D01*
X83596Y9594D01*
X83632Y9673D01*
X83651Y9711D01*
X83675Y9752D01*
X83703Y9790D01*
X83733Y9829D01*
X83765Y9867D01*
X83801Y9900D01*
X83804Y9902D01*
X83809Y9908D01*
X83823Y9916D01*
X83836Y9927D01*
X83858Y9941D01*
X83880Y9954D01*
X83907Y9971D01*
X83940Y9987D01*
X83973Y10001D01*
X84011Y10017D01*
X84052Y10031D01*
X84096Y10044D01*
X84145Y10055D01*
X84194Y10063D01*
X84246Y10069D01*
X84301Y10072D01*
X84336D01*
X84355Y10069D01*
D02*
G37*
G36*
X81146Y49569D02*
X81165Y49566D01*
X81217Y49561D01*
X81274Y49550D01*
X81340Y49533D01*
X81405Y49512D01*
X81471Y49481D01*
X81474D01*
X81479Y49479D01*
X81487Y49473D01*
X81501Y49465D01*
X81531Y49446D01*
X81569Y49419D01*
X81613Y49383D01*
X81656Y49342D01*
X81700Y49296D01*
X81738Y49241D01*
Y49238D01*
X81741Y49236D01*
X81747Y49225D01*
X81752Y49214D01*
X81760Y49200D01*
X81768Y49184D01*
X81785Y49143D01*
X81801Y49094D01*
X81818Y49039D01*
X81828Y48979D01*
X81831Y48916D01*
Y48914D01*
Y48908D01*
Y48900D01*
Y48889D01*
X81826Y48856D01*
X81820Y48818D01*
X81809Y48772D01*
X81793Y48723D01*
X81771Y48671D01*
X81741Y48619D01*
Y48616D01*
X81738Y48613D01*
X81725Y48597D01*
X81706Y48572D01*
X81676Y48542D01*
X81640Y48507D01*
X81594Y48471D01*
X81542Y48439D01*
X81482Y48406D01*
X81485D01*
X81493Y48403D01*
X81504Y48400D01*
X81520Y48395D01*
X81536Y48390D01*
X81558Y48381D01*
X81610Y48360D01*
X81665Y48329D01*
X81722Y48294D01*
X81779Y48248D01*
X81828Y48190D01*
X81831Y48188D01*
X81834Y48182D01*
X81839Y48174D01*
X81848Y48160D01*
X81858Y48147D01*
X81869Y48127D01*
X81880Y48106D01*
X81891Y48078D01*
X81902Y48051D01*
X81913Y48021D01*
X81935Y47953D01*
X81949Y47874D01*
X81954Y47830D01*
Y47786D01*
Y47783D01*
Y47772D01*
X81951Y47753D01*
Y47732D01*
X81946Y47702D01*
X81940Y47669D01*
X81935Y47633D01*
X81924Y47592D01*
X81910Y47549D01*
X81894Y47505D01*
X81875Y47459D01*
X81850Y47412D01*
X81823Y47363D01*
X81790Y47317D01*
X81755Y47270D01*
X81711Y47227D01*
X81708Y47224D01*
X81700Y47216D01*
X81687Y47205D01*
X81667Y47191D01*
X81646Y47175D01*
X81616Y47156D01*
X81583Y47134D01*
X81545Y47115D01*
X81504Y47093D01*
X81457Y47071D01*
X81408Y47052D01*
X81353Y47035D01*
X81296Y47022D01*
X81236Y47011D01*
X81173Y47003D01*
X81105Y47000D01*
X81091D01*
X81072Y47003D01*
X81050D01*
X81020Y47005D01*
X80988Y47011D01*
X80952Y47016D01*
X80911Y47025D01*
X80867Y47035D01*
X80824Y47049D01*
X80777Y47063D01*
X80731Y47082D01*
X80685Y47106D01*
X80641Y47131D01*
X80594Y47161D01*
X80554Y47196D01*
X80551Y47199D01*
X80545Y47205D01*
X80534Y47216D01*
X80518Y47232D01*
X80502Y47251D01*
X80483Y47276D01*
X80463Y47303D01*
X80442Y47336D01*
X80420Y47368D01*
X80398Y47409D01*
X80376Y47450D01*
X80357Y47497D01*
X80341Y47546D01*
X80324Y47598D01*
X80313Y47652D01*
X80305Y47710D01*
X80614Y47751D01*
Y47748D01*
X80616Y47740D01*
X80619Y47726D01*
X80625Y47707D01*
X80630Y47685D01*
X80635Y47661D01*
X80655Y47603D01*
X80679Y47541D01*
X80709Y47478D01*
X80747Y47420D01*
X80769Y47396D01*
X80791Y47371D01*
X80794D01*
X80797Y47366D01*
X80805Y47360D01*
X80813Y47352D01*
X80840Y47336D01*
X80879Y47314D01*
X80925Y47292D01*
X80977Y47276D01*
X81040Y47262D01*
X81105Y47257D01*
X81127D01*
X81143Y47259D01*
X81160Y47262D01*
X81184Y47265D01*
X81233Y47276D01*
X81293Y47292D01*
X81356Y47319D01*
X81386Y47339D01*
X81416Y47358D01*
X81446Y47379D01*
X81476Y47407D01*
X81479Y47409D01*
X81482Y47415D01*
X81490Y47423D01*
X81501Y47434D01*
X81512Y47448D01*
X81523Y47467D01*
X81536Y47486D01*
X81553Y47510D01*
X81580Y47565D01*
X81602Y47628D01*
X81621Y47702D01*
X81624Y47740D01*
X81626Y47781D01*
Y47783D01*
Y47789D01*
Y47803D01*
X81624Y47816D01*
X81621Y47835D01*
X81618Y47854D01*
X81610Y47904D01*
X81591Y47961D01*
X81566Y48018D01*
X81550Y48048D01*
X81531Y48076D01*
X81509Y48103D01*
X81485Y48130D01*
X81482Y48133D01*
X81479Y48136D01*
X81471Y48144D01*
X81460Y48152D01*
X81446Y48163D01*
X81430Y48174D01*
X81389Y48201D01*
X81337Y48226D01*
X81277Y48248D01*
X81209Y48264D01*
X81171Y48267D01*
X81132Y48269D01*
X81116D01*
X81097Y48267D01*
X81072D01*
X81040Y48261D01*
X81004Y48256D01*
X80960Y48248D01*
X80914Y48237D01*
X80947Y48507D01*
X80952D01*
X80966Y48504D01*
X80982Y48501D01*
X81018D01*
X81031Y48504D01*
X81050D01*
X81070Y48507D01*
X81116Y48515D01*
X81171Y48526D01*
X81231Y48545D01*
X81293Y48570D01*
X81353Y48605D01*
X81356D01*
X81362Y48611D01*
X81367Y48616D01*
X81378Y48624D01*
X81405Y48649D01*
X81435Y48684D01*
X81463Y48728D01*
X81490Y48783D01*
X81501Y48813D01*
X81506Y48848D01*
X81512Y48884D01*
X81515Y48922D01*
Y48925D01*
Y48930D01*
Y48938D01*
X81512Y48952D01*
X81509Y48982D01*
X81501Y49023D01*
X81487Y49067D01*
X81465Y49113D01*
X81435Y49162D01*
X81419Y49184D01*
X81397Y49206D01*
X81392Y49211D01*
X81375Y49222D01*
X81351Y49241D01*
X81318Y49263D01*
X81274Y49282D01*
X81222Y49301D01*
X81165Y49312D01*
X81100Y49318D01*
X81083D01*
X81070Y49315D01*
X81053D01*
X81037Y49312D01*
X80993Y49304D01*
X80947Y49290D01*
X80895Y49269D01*
X80846Y49241D01*
X80797Y49203D01*
X80791Y49198D01*
X80777Y49181D01*
X80756Y49157D01*
X80734Y49118D01*
X80707Y49072D01*
X80682Y49012D01*
X80660Y48944D01*
X80644Y48864D01*
X80335Y48919D01*
Y48922D01*
X80338Y48933D01*
X80341Y48949D01*
X80346Y48971D01*
X80354Y48996D01*
X80362Y49026D01*
X80373Y49058D01*
X80387Y49094D01*
X80423Y49173D01*
X80442Y49211D01*
X80466Y49252D01*
X80493Y49290D01*
X80524Y49329D01*
X80556Y49367D01*
X80592Y49400D01*
X80594Y49402D01*
X80600Y49408D01*
X80614Y49416D01*
X80627Y49427D01*
X80649Y49441D01*
X80671Y49454D01*
X80698Y49471D01*
X80731Y49487D01*
X80764Y49501D01*
X80802Y49517D01*
X80843Y49531D01*
X80887Y49544D01*
X80936Y49555D01*
X80985Y49563D01*
X81037Y49569D01*
X81091Y49572D01*
X81127D01*
X81146Y49569D01*
D02*
G37*
G36*
X76841D02*
X76860Y49566D01*
X76912Y49561D01*
X76969Y49550D01*
X77035Y49533D01*
X77100Y49512D01*
X77166Y49481D01*
X77168D01*
X77174Y49479D01*
X77182Y49473D01*
X77196Y49465D01*
X77226Y49446D01*
X77264Y49419D01*
X77308Y49383D01*
X77351Y49342D01*
X77395Y49296D01*
X77433Y49241D01*
Y49238D01*
X77436Y49236D01*
X77441Y49225D01*
X77447Y49214D01*
X77455Y49200D01*
X77463Y49184D01*
X77480Y49143D01*
X77496Y49094D01*
X77512Y49039D01*
X77523Y48979D01*
X77526Y48916D01*
Y48914D01*
Y48908D01*
Y48900D01*
Y48889D01*
X77521Y48856D01*
X77515Y48818D01*
X77504Y48772D01*
X77488Y48723D01*
X77466Y48671D01*
X77436Y48619D01*
Y48616D01*
X77433Y48613D01*
X77420Y48597D01*
X77400Y48572D01*
X77370Y48542D01*
X77335Y48507D01*
X77289Y48471D01*
X77237Y48439D01*
X77177Y48406D01*
X77179D01*
X77188Y48403D01*
X77198Y48400D01*
X77215Y48395D01*
X77231Y48390D01*
X77253Y48381D01*
X77305Y48360D01*
X77359Y48329D01*
X77417Y48294D01*
X77474Y48248D01*
X77523Y48190D01*
X77526Y48188D01*
X77529Y48182D01*
X77534Y48174D01*
X77542Y48160D01*
X77553Y48147D01*
X77564Y48127D01*
X77575Y48106D01*
X77586Y48078D01*
X77597Y48051D01*
X77608Y48021D01*
X77630Y47953D01*
X77643Y47874D01*
X77649Y47830D01*
Y47786D01*
Y47783D01*
Y47772D01*
X77646Y47753D01*
Y47732D01*
X77641Y47702D01*
X77635Y47669D01*
X77630Y47633D01*
X77619Y47592D01*
X77605Y47549D01*
X77589Y47505D01*
X77570Y47459D01*
X77545Y47412D01*
X77518Y47363D01*
X77485Y47317D01*
X77450Y47270D01*
X77406Y47227D01*
X77403Y47224D01*
X77395Y47216D01*
X77381Y47205D01*
X77362Y47191D01*
X77340Y47175D01*
X77310Y47156D01*
X77278Y47134D01*
X77239Y47115D01*
X77198Y47093D01*
X77152Y47071D01*
X77103Y47052D01*
X77048Y47035D01*
X76991Y47022D01*
X76931Y47011D01*
X76868Y47003D01*
X76800Y47000D01*
X76786D01*
X76767Y47003D01*
X76745D01*
X76715Y47005D01*
X76682Y47011D01*
X76647Y47016D01*
X76606Y47025D01*
X76562Y47035D01*
X76519Y47049D01*
X76472Y47063D01*
X76426Y47082D01*
X76379Y47106D01*
X76336Y47131D01*
X76289Y47161D01*
X76248Y47196D01*
X76246Y47199D01*
X76240Y47205D01*
X76229Y47216D01*
X76213Y47232D01*
X76196Y47251D01*
X76177Y47276D01*
X76158Y47303D01*
X76136Y47336D01*
X76115Y47368D01*
X76093Y47409D01*
X76071Y47450D01*
X76052Y47497D01*
X76035Y47546D01*
X76019Y47598D01*
X76008Y47652D01*
X76000Y47710D01*
X76308Y47751D01*
Y47748D01*
X76311Y47740D01*
X76314Y47726D01*
X76319Y47707D01*
X76325Y47685D01*
X76330Y47661D01*
X76349Y47603D01*
X76374Y47541D01*
X76404Y47478D01*
X76442Y47420D01*
X76464Y47396D01*
X76486Y47371D01*
X76489D01*
X76491Y47366D01*
X76499Y47360D01*
X76508Y47352D01*
X76535Y47336D01*
X76573Y47314D01*
X76620Y47292D01*
X76671Y47276D01*
X76734Y47262D01*
X76800Y47257D01*
X76822D01*
X76838Y47259D01*
X76854Y47262D01*
X76879Y47265D01*
X76928Y47276D01*
X76988Y47292D01*
X77051Y47319D01*
X77081Y47339D01*
X77111Y47358D01*
X77141Y47379D01*
X77171Y47407D01*
X77174Y47409D01*
X77177Y47415D01*
X77185Y47423D01*
X77196Y47434D01*
X77207Y47448D01*
X77218Y47467D01*
X77231Y47486D01*
X77248Y47510D01*
X77275Y47565D01*
X77297Y47628D01*
X77316Y47702D01*
X77319Y47740D01*
X77321Y47781D01*
Y47783D01*
Y47789D01*
Y47803D01*
X77319Y47816D01*
X77316Y47835D01*
X77313Y47854D01*
X77305Y47904D01*
X77286Y47961D01*
X77261Y48018D01*
X77245Y48048D01*
X77226Y48076D01*
X77204Y48103D01*
X77179Y48130D01*
X77177Y48133D01*
X77174Y48136D01*
X77166Y48144D01*
X77155Y48152D01*
X77141Y48163D01*
X77125Y48174D01*
X77084Y48201D01*
X77032Y48226D01*
X76972Y48248D01*
X76904Y48264D01*
X76865Y48267D01*
X76827Y48269D01*
X76811D01*
X76792Y48267D01*
X76767D01*
X76734Y48261D01*
X76699Y48256D01*
X76655Y48248D01*
X76609Y48237D01*
X76641Y48507D01*
X76647D01*
X76661Y48504D01*
X76677Y48501D01*
X76713D01*
X76726Y48504D01*
X76745D01*
X76764Y48507D01*
X76811Y48515D01*
X76865Y48526D01*
X76925Y48545D01*
X76988Y48570D01*
X77048Y48605D01*
X77051D01*
X77056Y48611D01*
X77062Y48616D01*
X77073Y48624D01*
X77100Y48649D01*
X77130Y48684D01*
X77157Y48728D01*
X77185Y48783D01*
X77196Y48813D01*
X77201Y48848D01*
X77207Y48884D01*
X77209Y48922D01*
Y48925D01*
Y48930D01*
Y48938D01*
X77207Y48952D01*
X77204Y48982D01*
X77196Y49023D01*
X77182Y49067D01*
X77160Y49113D01*
X77130Y49162D01*
X77114Y49184D01*
X77092Y49206D01*
X77087Y49211D01*
X77070Y49222D01*
X77046Y49241D01*
X77013Y49263D01*
X76969Y49282D01*
X76917Y49301D01*
X76860Y49312D01*
X76794Y49318D01*
X76778D01*
X76764Y49315D01*
X76748D01*
X76732Y49312D01*
X76688Y49304D01*
X76641Y49290D01*
X76590Y49269D01*
X76540Y49241D01*
X76491Y49203D01*
X76486Y49198D01*
X76472Y49181D01*
X76450Y49157D01*
X76429Y49118D01*
X76401Y49072D01*
X76377Y49012D01*
X76355Y48944D01*
X76338Y48864D01*
X76030Y48919D01*
Y48922D01*
X76033Y48933D01*
X76035Y48949D01*
X76041Y48971D01*
X76049Y48996D01*
X76057Y49026D01*
X76068Y49058D01*
X76082Y49094D01*
X76117Y49173D01*
X76136Y49211D01*
X76161Y49252D01*
X76188Y49290D01*
X76218Y49329D01*
X76251Y49367D01*
X76287Y49400D01*
X76289Y49402D01*
X76295Y49408D01*
X76308Y49416D01*
X76322Y49427D01*
X76344Y49441D01*
X76366Y49454D01*
X76393Y49471D01*
X76426Y49487D01*
X76459Y49501D01*
X76497Y49517D01*
X76538Y49531D01*
X76581Y49544D01*
X76631Y49555D01*
X76680Y49563D01*
X76732Y49569D01*
X76786Y49572D01*
X76822D01*
X76841Y49569D01*
D02*
G37*
G36*
X79145Y47044D02*
X78801D01*
X77824Y49563D01*
X78187D01*
X78842Y47732D01*
Y47729D01*
X78845Y47721D01*
X78850Y47710D01*
X78856Y47693D01*
X78861Y47674D01*
X78869Y47652D01*
X78877Y47628D01*
X78888Y47598D01*
X78907Y47535D01*
X78929Y47467D01*
X78951Y47393D01*
X78973Y47319D01*
Y47322D01*
X78976Y47328D01*
X78978Y47341D01*
X78984Y47355D01*
X78989Y47374D01*
X78995Y47396D01*
X79003Y47420D01*
X79011Y47448D01*
X79030Y47510D01*
X79055Y47581D01*
X79082Y47655D01*
X79109Y47732D01*
X79789Y49563D01*
X80128D01*
X79145Y47044D01*
D02*
G37*
G36*
X65634Y36017D02*
X65696Y36014D01*
X65759Y36009D01*
X65819Y36003D01*
X65849Y36001D01*
X65874Y35995D01*
X65877D01*
X65882Y35992D01*
X65893D01*
X65904Y35990D01*
X65920Y35984D01*
X65939Y35982D01*
X65983Y35968D01*
X66032Y35952D01*
X66084Y35930D01*
X66136Y35905D01*
X66185Y35875D01*
X66188D01*
X66190Y35872D01*
X66207Y35859D01*
X66229Y35840D01*
X66259Y35812D01*
X66289Y35780D01*
X66324Y35736D01*
X66357Y35689D01*
X66387Y35632D01*
Y35629D01*
X66390Y35624D01*
X66395Y35616D01*
X66401Y35605D01*
X66406Y35591D01*
X66412Y35572D01*
X66428Y35531D01*
X66442Y35479D01*
X66455Y35422D01*
X66464Y35356D01*
X66466Y35288D01*
Y35285D01*
Y35274D01*
Y35258D01*
X66464Y35234D01*
X66461Y35206D01*
X66455Y35176D01*
X66450Y35141D01*
X66442Y35100D01*
X66431Y35059D01*
X66417Y35015D01*
X66401Y34971D01*
X66379Y34925D01*
X66357Y34879D01*
X66330Y34832D01*
X66297Y34789D01*
X66262Y34745D01*
X66259Y34742D01*
X66251Y34737D01*
X66240Y34726D01*
X66220Y34709D01*
X66199Y34693D01*
X66169Y34674D01*
X66133Y34655D01*
X66092Y34636D01*
X66043Y34614D01*
X65991Y34595D01*
X65928Y34576D01*
X65863Y34559D01*
X65786Y34545D01*
X65705Y34535D01*
X65617Y34526D01*
X65519Y34524D01*
X64875D01*
Y33500D01*
X64542D01*
Y36020D01*
X65579D01*
X65634Y36017D01*
D02*
G37*
G36*
X62966D02*
X62999D01*
X63032Y36014D01*
X63106Y36011D01*
X63179Y36003D01*
X63253Y35995D01*
X63286Y35987D01*
X63316Y35982D01*
X63319D01*
X63327Y35979D01*
X63338Y35976D01*
X63351Y35971D01*
X63370Y35965D01*
X63392Y35960D01*
X63444Y35941D01*
X63501Y35916D01*
X63561Y35886D01*
X63624Y35848D01*
X63684Y35801D01*
X63687Y35799D01*
X63693Y35793D01*
X63704Y35785D01*
X63717Y35771D01*
X63734Y35755D01*
X63753Y35733D01*
X63775Y35711D01*
X63796Y35684D01*
X63821Y35654D01*
X63845Y35621D01*
X63870Y35586D01*
X63895Y35547D01*
X63941Y35463D01*
X63982Y35370D01*
Y35367D01*
X63987Y35359D01*
X63990Y35343D01*
X63998Y35324D01*
X64007Y35299D01*
X64015Y35269D01*
X64023Y35236D01*
X64034Y35198D01*
X64042Y35154D01*
X64050Y35108D01*
X64058Y35059D01*
X64067Y35007D01*
X64075Y34952D01*
X64078Y34895D01*
X64083Y34772D01*
Y34769D01*
Y34758D01*
Y34745D01*
Y34723D01*
X64080Y34698D01*
Y34668D01*
X64078Y34636D01*
X64075Y34600D01*
X64067Y34521D01*
X64053Y34436D01*
X64037Y34349D01*
X64015Y34262D01*
Y34259D01*
X64012Y34251D01*
X64007Y34240D01*
X64004Y34226D01*
X63996Y34207D01*
X63987Y34185D01*
X63968Y34133D01*
X63944Y34076D01*
X63914Y34013D01*
X63881Y33953D01*
X63843Y33896D01*
Y33893D01*
X63837Y33890D01*
X63832Y33882D01*
X63824Y33871D01*
X63805Y33847D01*
X63775Y33814D01*
X63742Y33776D01*
X63704Y33737D01*
X63660Y33702D01*
X63613Y33667D01*
X63611D01*
X63608Y33664D01*
X63591Y33653D01*
X63564Y33639D01*
X63529Y33620D01*
X63485Y33601D01*
X63433Y33579D01*
X63373Y33560D01*
X63310Y33541D01*
X63308D01*
X63302Y33538D01*
X63294D01*
X63280Y33535D01*
X63264Y33533D01*
X63242Y33527D01*
X63220Y33525D01*
X63196Y33522D01*
X63136Y33514D01*
X63067Y33505D01*
X62991Y33503D01*
X62909Y33500D01*
X62000D01*
Y36020D01*
X62939D01*
X62966Y36017D01*
D02*
G37*
G36*
X63329Y10102D02*
X63357Y10099D01*
X63387Y10096D01*
X63422Y10093D01*
X63499Y10082D01*
X63583Y10066D01*
X63668Y10044D01*
X63753Y10014D01*
X63755D01*
X63763Y10012D01*
X63775Y10006D01*
X63788Y9998D01*
X63807Y9990D01*
X63829Y9979D01*
X63878Y9951D01*
X63936Y9916D01*
X63993Y9875D01*
X64047Y9826D01*
X64099Y9769D01*
X64102Y9766D01*
X64105Y9760D01*
X64110Y9752D01*
X64121Y9741D01*
X64129Y9725D01*
X64143Y9706D01*
X64157Y9684D01*
X64170Y9657D01*
X64187Y9629D01*
X64200Y9599D01*
X64217Y9564D01*
X64233Y9528D01*
X64263Y9446D01*
X64290Y9356D01*
X63987Y9274D01*
Y9277D01*
X63985Y9283D01*
X63982Y9294D01*
X63977Y9307D01*
X63971Y9321D01*
X63965Y9340D01*
X63949Y9384D01*
X63927Y9433D01*
X63903Y9482D01*
X63876Y9531D01*
X63845Y9575D01*
X63843Y9580D01*
X63829Y9594D01*
X63810Y9613D01*
X63785Y9640D01*
X63750Y9668D01*
X63709Y9698D01*
X63660Y9725D01*
X63605Y9752D01*
X63603D01*
X63597Y9755D01*
X63589Y9758D01*
X63578Y9763D01*
X63564Y9769D01*
X63545Y9774D01*
X63504Y9788D01*
X63452Y9799D01*
X63395Y9809D01*
X63329Y9818D01*
X63261Y9820D01*
X63223D01*
X63204Y9818D01*
X63179D01*
X63155Y9815D01*
X63125Y9812D01*
X63065Y9804D01*
X62996Y9790D01*
X62931Y9774D01*
X62865Y9749D01*
X62863D01*
X62857Y9747D01*
X62849Y9741D01*
X62838Y9736D01*
X62808Y9722D01*
X62770Y9700D01*
X62726Y9673D01*
X62682Y9640D01*
X62636Y9605D01*
X62595Y9564D01*
X62590Y9558D01*
X62579Y9545D01*
X62560Y9520D01*
X62538Y9490D01*
X62513Y9455D01*
X62486Y9411D01*
X62461Y9364D01*
X62440Y9315D01*
Y9313D01*
X62437Y9305D01*
X62431Y9294D01*
X62426Y9274D01*
X62418Y9253D01*
X62410Y9228D01*
X62401Y9198D01*
X62393Y9165D01*
X62382Y9130D01*
X62374Y9089D01*
X62360Y9004D01*
X62349Y8909D01*
X62344Y8808D01*
Y8805D01*
Y8794D01*
Y8775D01*
X62347Y8753D01*
Y8723D01*
X62349Y8690D01*
X62355Y8652D01*
X62358Y8611D01*
X62371Y8521D01*
X62393Y8428D01*
X62420Y8333D01*
X62459Y8242D01*
X62461Y8240D01*
X62464Y8232D01*
X62470Y8221D01*
X62480Y8204D01*
X62491Y8188D01*
X62508Y8166D01*
X62543Y8117D01*
X62592Y8062D01*
X62650Y8005D01*
X62715Y7953D01*
X62753Y7929D01*
X62794Y7907D01*
X62797D01*
X62805Y7901D01*
X62816Y7896D01*
X62833Y7890D01*
X62854Y7882D01*
X62879Y7871D01*
X62906Y7863D01*
X62936Y7852D01*
X62969Y7841D01*
X63007Y7833D01*
X63086Y7814D01*
X63174Y7803D01*
X63267Y7797D01*
X63288D01*
X63305Y7800D01*
X63324D01*
X63346Y7803D01*
X63370Y7806D01*
X63400Y7808D01*
X63463Y7817D01*
X63534Y7833D01*
X63611Y7852D01*
X63687Y7879D01*
X63690D01*
X63695Y7882D01*
X63706Y7888D01*
X63723Y7893D01*
X63739Y7901D01*
X63758Y7912D01*
X63805Y7934D01*
X63856Y7961D01*
X63908Y7991D01*
X63957Y8021D01*
X64001Y8057D01*
Y8529D01*
X63261D01*
Y8827D01*
X64329D01*
Y7890D01*
X64326Y7888D01*
X64318Y7882D01*
X64304Y7871D01*
X64285Y7858D01*
X64263Y7841D01*
X64236Y7825D01*
X64206Y7803D01*
X64173Y7781D01*
X64138Y7759D01*
X64097Y7735D01*
X64012Y7686D01*
X63919Y7639D01*
X63821Y7598D01*
X63818D01*
X63810Y7593D01*
X63796Y7590D01*
X63775Y7582D01*
X63753Y7576D01*
X63723Y7568D01*
X63693Y7557D01*
X63657Y7549D01*
X63616Y7541D01*
X63575Y7530D01*
X63485Y7516D01*
X63387Y7505D01*
X63286Y7500D01*
X63250D01*
X63223Y7503D01*
X63190Y7505D01*
X63152Y7508D01*
X63108Y7514D01*
X63062Y7519D01*
X63013Y7527D01*
X62958Y7538D01*
X62904Y7552D01*
X62844Y7568D01*
X62786Y7585D01*
X62729Y7606D01*
X62669Y7631D01*
X62612Y7658D01*
X62609Y7661D01*
X62598Y7666D01*
X62581Y7675D01*
X62562Y7688D01*
X62538Y7705D01*
X62508Y7724D01*
X62475Y7748D01*
X62440Y7776D01*
X62404Y7806D01*
X62366Y7841D01*
X62327Y7877D01*
X62289Y7918D01*
X62254Y7964D01*
X62218Y8010D01*
X62183Y8062D01*
X62153Y8117D01*
X62150Y8120D01*
X62147Y8131D01*
X62139Y8147D01*
X62128Y8169D01*
X62117Y8199D01*
X62104Y8232D01*
X62090Y8270D01*
X62076Y8314D01*
X62063Y8360D01*
X62049Y8412D01*
X62035Y8469D01*
X62024Y8526D01*
X62014Y8589D01*
X62005Y8652D01*
X62003Y8720D01*
X62000Y8788D01*
Y8794D01*
Y8805D01*
Y8824D01*
X62003Y8851D01*
X62005Y8884D01*
X62008Y8922D01*
X62014Y8966D01*
X62019Y9012D01*
X62027Y9064D01*
X62038Y9119D01*
X62066Y9234D01*
X62082Y9294D01*
X62104Y9354D01*
X62125Y9414D01*
X62153Y9474D01*
X62156Y9477D01*
X62161Y9487D01*
X62169Y9504D01*
X62180Y9526D01*
X62196Y9553D01*
X62216Y9583D01*
X62240Y9616D01*
X62265Y9654D01*
X62295Y9692D01*
X62327Y9730D01*
X62363Y9769D01*
X62404Y9809D01*
X62445Y9848D01*
X62491Y9883D01*
X62541Y9919D01*
X62592Y9949D01*
X62595Y9951D01*
X62606Y9954D01*
X62622Y9962D01*
X62644Y9973D01*
X62672Y9984D01*
X62704Y9998D01*
X62743Y10012D01*
X62783Y10028D01*
X62830Y10042D01*
X62882Y10055D01*
X62936Y10069D01*
X62996Y10080D01*
X63056Y10091D01*
X63122Y10099D01*
X63190Y10102D01*
X63258Y10104D01*
X63305D01*
X63329Y10102D01*
D02*
G37*
G36*
X66802Y7541D02*
X66458D01*
X65137Y9517D01*
Y7541D01*
X64817D01*
Y10061D01*
X65159D01*
X66483Y8081D01*
Y10061D01*
X66802D01*
Y7541D01*
D02*
G37*
G36*
X68328Y10058D02*
X68361D01*
X68394Y10055D01*
X68467Y10052D01*
X68541Y10044D01*
X68615Y10036D01*
X68647Y10028D01*
X68678Y10023D01*
X68680D01*
X68688Y10020D01*
X68699Y10017D01*
X68713Y10012D01*
X68732Y10006D01*
X68754Y10001D01*
X68806Y9982D01*
X68863Y9957D01*
X68923Y9927D01*
X68986Y9889D01*
X69046Y9842D01*
X69049Y9840D01*
X69054Y9834D01*
X69065Y9826D01*
X69079Y9812D01*
X69095Y9796D01*
X69114Y9774D01*
X69136Y9752D01*
X69158Y9725D01*
X69183Y9695D01*
X69207Y9662D01*
X69232Y9627D01*
X69256Y9588D01*
X69303Y9504D01*
X69344Y9411D01*
Y9408D01*
X69349Y9400D01*
X69352Y9384D01*
X69360Y9364D01*
X69368Y9340D01*
X69376Y9310D01*
X69385Y9277D01*
X69396Y9239D01*
X69404Y9195D01*
X69412Y9149D01*
X69420Y9100D01*
X69428Y9048D01*
X69437Y8993D01*
X69439Y8936D01*
X69445Y8813D01*
Y8810D01*
Y8799D01*
Y8786D01*
Y8764D01*
X69442Y8739D01*
Y8709D01*
X69439Y8677D01*
X69437Y8641D01*
X69428Y8562D01*
X69415Y8477D01*
X69398Y8390D01*
X69376Y8303D01*
Y8300D01*
X69374Y8292D01*
X69368Y8281D01*
X69366Y8267D01*
X69357Y8248D01*
X69349Y8226D01*
X69330Y8174D01*
X69305Y8117D01*
X69275Y8054D01*
X69243Y7994D01*
X69204Y7937D01*
Y7934D01*
X69199Y7931D01*
X69194Y7923D01*
X69185Y7912D01*
X69166Y7888D01*
X69136Y7855D01*
X69103Y7817D01*
X69065Y7778D01*
X69021Y7743D01*
X68975Y7707D01*
X68972D01*
X68970Y7705D01*
X68953Y7694D01*
X68926Y7680D01*
X68891Y7661D01*
X68847Y7642D01*
X68795Y7620D01*
X68735Y7601D01*
X68672Y7582D01*
X68669D01*
X68664Y7579D01*
X68656D01*
X68642Y7576D01*
X68626Y7574D01*
X68604Y7568D01*
X68582Y7565D01*
X68557Y7563D01*
X68497Y7555D01*
X68429Y7546D01*
X68353Y7544D01*
X68271Y7541D01*
X67362D01*
Y10061D01*
X68301D01*
X68328Y10058D01*
D02*
G37*
G36*
X66524Y20500D02*
X66180D01*
X64858Y22477D01*
Y20500D01*
X64539D01*
Y23020D01*
X64880D01*
X66204Y21041D01*
Y23020D01*
X66524D01*
Y20500D01*
D02*
G37*
G36*
X62966Y23017D02*
X62999D01*
X63032Y23014D01*
X63106Y23011D01*
X63179Y23003D01*
X63253Y22995D01*
X63286Y22987D01*
X63316Y22982D01*
X63319D01*
X63327Y22979D01*
X63338Y22976D01*
X63351Y22971D01*
X63370Y22965D01*
X63392Y22960D01*
X63444Y22941D01*
X63501Y22916D01*
X63561Y22886D01*
X63624Y22848D01*
X63684Y22801D01*
X63687Y22799D01*
X63693Y22793D01*
X63704Y22785D01*
X63717Y22771D01*
X63734Y22755D01*
X63753Y22733D01*
X63775Y22711D01*
X63796Y22684D01*
X63821Y22654D01*
X63845Y22621D01*
X63870Y22586D01*
X63895Y22547D01*
X63941Y22463D01*
X63982Y22370D01*
Y22367D01*
X63987Y22359D01*
X63990Y22343D01*
X63998Y22324D01*
X64007Y22299D01*
X64015Y22269D01*
X64023Y22236D01*
X64034Y22198D01*
X64042Y22154D01*
X64050Y22108D01*
X64058Y22059D01*
X64067Y22007D01*
X64075Y21952D01*
X64078Y21895D01*
X64083Y21772D01*
Y21769D01*
Y21758D01*
Y21745D01*
Y21723D01*
X64080Y21698D01*
Y21668D01*
X64078Y21636D01*
X64075Y21600D01*
X64067Y21521D01*
X64053Y21436D01*
X64037Y21349D01*
X64015Y21262D01*
Y21259D01*
X64012Y21251D01*
X64007Y21240D01*
X64004Y21226D01*
X63996Y21207D01*
X63987Y21185D01*
X63968Y21133D01*
X63944Y21076D01*
X63914Y21013D01*
X63881Y20953D01*
X63843Y20896D01*
Y20893D01*
X63837Y20890D01*
X63832Y20882D01*
X63824Y20871D01*
X63805Y20847D01*
X63775Y20814D01*
X63742Y20776D01*
X63704Y20738D01*
X63660Y20702D01*
X63613Y20666D01*
X63611D01*
X63608Y20664D01*
X63591Y20653D01*
X63564Y20639D01*
X63529Y20620D01*
X63485Y20601D01*
X63433Y20579D01*
X63373Y20560D01*
X63310Y20541D01*
X63308D01*
X63302Y20538D01*
X63294D01*
X63280Y20535D01*
X63264Y20533D01*
X63242Y20527D01*
X63220Y20525D01*
X63196Y20522D01*
X63136Y20514D01*
X63067Y20505D01*
X62991Y20503D01*
X62909Y20500D01*
X62000D01*
Y23020D01*
X62939D01*
X62966Y23017D01*
D02*
G37*
G36*
X65145Y46541D02*
X64801D01*
X63824Y49061D01*
X64187D01*
X64842Y47229D01*
Y47226D01*
X64845Y47218D01*
X64850Y47207D01*
X64855Y47191D01*
X64861Y47172D01*
X64869Y47150D01*
X64877Y47125D01*
X64888Y47095D01*
X64907Y47032D01*
X64929Y46964D01*
X64951Y46890D01*
X64973Y46817D01*
Y46819D01*
X64976Y46825D01*
X64978Y46839D01*
X64984Y46852D01*
X64989Y46871D01*
X64995Y46893D01*
X65003Y46918D01*
X65011Y46945D01*
X65030Y47008D01*
X65055Y47079D01*
X65082Y47152D01*
X65109Y47229D01*
X65789Y49061D01*
X66128D01*
X65145Y46541D01*
D02*
G37*
G36*
X63551Y48733D02*
X62543D01*
X62410Y48056D01*
X62412Y48059D01*
X62420Y48064D01*
X62431Y48070D01*
X62448Y48081D01*
X62470Y48092D01*
X62494Y48105D01*
X62521Y48122D01*
X62554Y48135D01*
X62587Y48149D01*
X62625Y48165D01*
X62704Y48190D01*
X62748Y48201D01*
X62792Y48209D01*
X62838Y48212D01*
X62884Y48214D01*
X62898D01*
X62917Y48212D01*
X62939D01*
X62966Y48206D01*
X62999Y48204D01*
X63037Y48195D01*
X63076Y48187D01*
X63119Y48173D01*
X63163Y48160D01*
X63209Y48141D01*
X63256Y48119D01*
X63302Y48092D01*
X63349Y48061D01*
X63395Y48026D01*
X63439Y47985D01*
X63441Y47982D01*
X63450Y47974D01*
X63460Y47960D01*
X63474Y47944D01*
X63493Y47922D01*
X63512Y47892D01*
X63532Y47862D01*
X63553Y47827D01*
X63575Y47786D01*
X63594Y47739D01*
X63616Y47693D01*
X63633Y47638D01*
X63646Y47584D01*
X63657Y47524D01*
X63665Y47461D01*
X63668Y47395D01*
Y47393D01*
Y47379D01*
Y47363D01*
X63665Y47338D01*
X63662Y47308D01*
X63657Y47275D01*
X63652Y47237D01*
X63643Y47193D01*
X63633Y47150D01*
X63619Y47100D01*
X63603Y47051D01*
X63583Y47002D01*
X63561Y46953D01*
X63534Y46901D01*
X63504Y46852D01*
X63469Y46806D01*
X63466Y46803D01*
X63458Y46792D01*
X63444Y46778D01*
X63425Y46759D01*
X63400Y46735D01*
X63370Y46710D01*
X63335Y46680D01*
X63294Y46653D01*
X63250Y46626D01*
X63201Y46595D01*
X63147Y46571D01*
X63086Y46549D01*
X63024Y46527D01*
X62955Y46514D01*
X62884Y46503D01*
X62808Y46500D01*
X62775D01*
X62751Y46503D01*
X62721Y46505D01*
X62688Y46511D01*
X62650Y46516D01*
X62609Y46525D01*
X62565Y46533D01*
X62519Y46546D01*
X62472Y46563D01*
X62426Y46582D01*
X62379Y46604D01*
X62333Y46628D01*
X62289Y46658D01*
X62246Y46691D01*
X62243Y46694D01*
X62238Y46699D01*
X62226Y46710D01*
X62213Y46727D01*
X62194Y46746D01*
X62175Y46768D01*
X62156Y46795D01*
X62134Y46828D01*
X62112Y46860D01*
X62090Y46898D01*
X62071Y46942D01*
X62052Y46986D01*
X62033Y47035D01*
X62019Y47087D01*
X62008Y47144D01*
X62000Y47202D01*
X62325Y47226D01*
Y47223D01*
X62327Y47215D01*
X62330Y47204D01*
X62333Y47188D01*
X62336Y47169D01*
X62344Y47144D01*
X62358Y47092D01*
X62379Y47035D01*
X62410Y46975D01*
X62445Y46920D01*
X62467Y46896D01*
X62489Y46871D01*
X62491D01*
X62494Y46866D01*
X62502Y46860D01*
X62513Y46852D01*
X62541Y46833D01*
X62579Y46814D01*
X62625Y46792D01*
X62680Y46773D01*
X62740Y46759D01*
X62773Y46757D01*
X62808Y46754D01*
X62830D01*
X62846Y46757D01*
X62865Y46759D01*
X62887Y46762D01*
X62939Y46776D01*
X62999Y46795D01*
X63029Y46808D01*
X63062Y46825D01*
X63095Y46844D01*
X63125Y46866D01*
X63155Y46890D01*
X63185Y46920D01*
X63187Y46923D01*
X63190Y46929D01*
X63198Y46937D01*
X63209Y46950D01*
X63220Y46970D01*
X63234Y46989D01*
X63248Y47013D01*
X63264Y47041D01*
X63278Y47071D01*
X63291Y47103D01*
X63305Y47142D01*
X63316Y47180D01*
X63327Y47223D01*
X63335Y47270D01*
X63338Y47316D01*
X63340Y47368D01*
Y47371D01*
Y47379D01*
Y47393D01*
X63338Y47412D01*
X63335Y47434D01*
X63332Y47461D01*
X63327Y47488D01*
X63321Y47521D01*
X63305Y47587D01*
X63278Y47657D01*
X63261Y47690D01*
X63239Y47723D01*
X63218Y47756D01*
X63190Y47786D01*
X63187Y47789D01*
X63185Y47791D01*
X63174Y47799D01*
X63163Y47810D01*
X63149Y47821D01*
X63130Y47835D01*
X63111Y47849D01*
X63086Y47865D01*
X63059Y47879D01*
X63032Y47892D01*
X62964Y47917D01*
X62928Y47928D01*
X62887Y47936D01*
X62846Y47939D01*
X62803Y47941D01*
X62778D01*
X62748Y47939D01*
X62713Y47933D01*
X62669Y47925D01*
X62622Y47911D01*
X62576Y47895D01*
X62530Y47870D01*
X62524Y47868D01*
X62511Y47859D01*
X62489Y47843D01*
X62461Y47824D01*
X62434Y47797D01*
X62401Y47767D01*
X62371Y47731D01*
X62344Y47693D01*
X62055Y47734D01*
X62297Y49028D01*
X63551D01*
Y48733D01*
D02*
G37*
%LPC*%
G36*
X44741Y10744D02*
X43909D01*
Y9991D01*
X43911Y9972D01*
Y9950D01*
X43914Y9898D01*
X43920Y9841D01*
X43928Y9781D01*
X43939Y9723D01*
X43955Y9671D01*
Y9669D01*
X43958Y9666D01*
X43963Y9649D01*
X43974Y9628D01*
X43990Y9598D01*
X44012Y9567D01*
X44037Y9535D01*
X44070Y9502D01*
X44105Y9475D01*
X44111Y9472D01*
X44124Y9464D01*
X44143Y9453D01*
X44173Y9439D01*
X44206Y9428D01*
X44244Y9417D01*
X44288Y9409D01*
X44332Y9407D01*
X44335D01*
X44340D01*
X44348D01*
X44362Y9409D01*
X44376D01*
X44395Y9412D01*
X44436Y9423D01*
X44482Y9439D01*
X44531Y9461D01*
X44578Y9494D01*
X44602Y9516D01*
X44624Y9538D01*
X44627Y9540D01*
X44629Y9543D01*
X44635Y9551D01*
X44643Y9562D01*
X44651Y9576D01*
X44662Y9595D01*
X44673Y9614D01*
X44684Y9639D01*
X44695Y9666D01*
X44703Y9696D01*
X44714Y9729D01*
X44722Y9764D01*
X44730Y9805D01*
X44736Y9849D01*
X44741Y9895D01*
Y10744D01*
D02*
G37*
G36*
X111167Y29832D02*
X110414D01*
X110394Y29830D01*
X110372D01*
X110321Y29827D01*
X110263Y29822D01*
X110203Y29813D01*
X110146Y29802D01*
X110094Y29786D01*
X110091D01*
X110089Y29783D01*
X110072Y29778D01*
X110050Y29767D01*
X110020Y29750D01*
X109990Y29729D01*
X109958Y29704D01*
X109925Y29671D01*
X109897Y29636D01*
X109895Y29630D01*
X109887Y29617D01*
X109876Y29598D01*
X109862Y29568D01*
X109851Y29535D01*
X109840Y29497D01*
X109832Y29453D01*
X109829Y29409D01*
Y29407D01*
Y29401D01*
Y29393D01*
X109832Y29379D01*
Y29366D01*
X109835Y29346D01*
X109846Y29305D01*
X109862Y29259D01*
X109884Y29210D01*
X109917Y29164D01*
X109938Y29139D01*
X109960Y29117D01*
X109963Y29114D01*
X109966Y29112D01*
X109974Y29106D01*
X109985Y29098D01*
X109999Y29090D01*
X110018Y29079D01*
X110037Y29068D01*
X110061Y29057D01*
X110089Y29046D01*
X110119Y29038D01*
X110151Y29027D01*
X110187Y29019D01*
X110228Y29011D01*
X110272Y29005D01*
X110318Y29000D01*
X111167D01*
Y29832D01*
D02*
G37*
G36*
X41613Y44982D02*
X40477D01*
X41613Y44187D01*
Y44982D01*
D02*
G37*
G36*
X40668Y43248D02*
X40666D01*
X40660D01*
X40652D01*
X40638Y43245D01*
X40624D01*
X40605Y43242D01*
X40565Y43231D01*
X40518Y43215D01*
X40469Y43193D01*
X40422Y43161D01*
X40398Y43139D01*
X40376Y43117D01*
X40373Y43114D01*
X40371Y43111D01*
X40365Y43103D01*
X40357Y43092D01*
X40349Y43079D01*
X40338Y43060D01*
X40327Y43040D01*
X40316Y43016D01*
X40305Y42988D01*
X40297Y42959D01*
X40286Y42926D01*
X40278Y42890D01*
X40270Y42849D01*
X40264Y42806D01*
X40259Y42759D01*
Y41910D01*
X41091D01*
Y42664D01*
X41089Y42683D01*
Y42705D01*
X41086Y42757D01*
X41080Y42814D01*
X41072Y42874D01*
X41061Y42931D01*
X41045Y42983D01*
Y42986D01*
X41042Y42988D01*
X41037Y43005D01*
X41026Y43027D01*
X41010Y43057D01*
X40988Y43087D01*
X40963Y43120D01*
X40930Y43152D01*
X40895Y43180D01*
X40889Y43182D01*
X40876Y43191D01*
X40857Y43202D01*
X40827Y43215D01*
X40794Y43226D01*
X40756Y43237D01*
X40712Y43245D01*
X40668Y43248D01*
D02*
G37*
G36*
X65598Y35722D02*
X64875D01*
Y34821D01*
X65554D01*
X65576Y34824D01*
X65604D01*
X65634Y34827D01*
X65669Y34832D01*
X65705Y34838D01*
X65781Y34851D01*
X65857Y34873D01*
X65893Y34887D01*
X65926Y34903D01*
X65958Y34920D01*
X65986Y34941D01*
X65988Y34944D01*
X65991Y34947D01*
X65999Y34955D01*
X66008Y34963D01*
X66029Y34991D01*
X66054Y35029D01*
X66079Y35078D01*
X66100Y35135D01*
X66117Y35203D01*
X66119Y35239D01*
X66122Y35280D01*
Y35283D01*
Y35288D01*
Y35296D01*
Y35307D01*
X66117Y35337D01*
X66111Y35373D01*
X66103Y35416D01*
X66087Y35460D01*
X66068Y35506D01*
X66040Y35550D01*
X66038Y35556D01*
X66027Y35569D01*
X66008Y35588D01*
X65986Y35610D01*
X65953Y35635D01*
X65917Y35659D01*
X65877Y35681D01*
X65830Y35698D01*
X65827D01*
X65814Y35700D01*
X65792Y35706D01*
X65759Y35711D01*
X65740D01*
X65718Y35714D01*
X65691Y35717D01*
X65664Y35719D01*
X65631D01*
X65598Y35722D01*
D02*
G37*
G36*
X62915D02*
X62333D01*
Y33797D01*
X62912D01*
X62934Y33800D01*
X62958D01*
X63013Y33803D01*
X63076Y33808D01*
X63141Y33817D01*
X63204Y33828D01*
X63261Y33841D01*
X63264D01*
X63267Y33844D01*
X63275Y33847D01*
X63286Y33849D01*
X63310Y33860D01*
X63343Y33874D01*
X63379Y33893D01*
X63417Y33915D01*
X63455Y33942D01*
X63488Y33972D01*
X63490Y33975D01*
X63493Y33978D01*
X63507Y33994D01*
X63529Y34021D01*
X63556Y34057D01*
X63583Y34103D01*
X63613Y34158D01*
X63643Y34221D01*
X63671Y34292D01*
Y34294D01*
X63673Y34300D01*
X63676Y34311D01*
X63682Y34327D01*
X63687Y34346D01*
X63693Y34371D01*
X63698Y34398D01*
X63706Y34428D01*
X63712Y34461D01*
X63717Y34499D01*
X63723Y34537D01*
X63728Y34581D01*
X63736Y34674D01*
X63739Y34778D01*
Y34783D01*
Y34794D01*
Y34816D01*
X63736Y34843D01*
Y34876D01*
X63734Y34914D01*
X63728Y34955D01*
X63723Y35001D01*
X63706Y35100D01*
X63684Y35201D01*
X63652Y35296D01*
X63630Y35343D01*
X63608Y35384D01*
X63605Y35386D01*
X63603Y35392D01*
X63594Y35403D01*
X63583Y35419D01*
X63572Y35436D01*
X63556Y35455D01*
X63521Y35498D01*
X63474Y35547D01*
X63420Y35594D01*
X63359Y35638D01*
X63327Y35654D01*
X63291Y35670D01*
X63288D01*
X63286Y35673D01*
X63278Y35676D01*
X63267Y35678D01*
X63250Y35681D01*
X63234Y35687D01*
X63212Y35692D01*
X63187Y35698D01*
X63160Y35700D01*
X63127Y35706D01*
X63092Y35711D01*
X63054Y35714D01*
X63010Y35717D01*
X62964Y35719D01*
X62915Y35722D01*
D02*
G37*
G36*
X68276Y9763D02*
X67695D01*
Y7839D01*
X68274D01*
X68295Y7841D01*
X68320D01*
X68375Y7844D01*
X68437Y7849D01*
X68503Y7858D01*
X68566Y7869D01*
X68623Y7882D01*
X68626D01*
X68628Y7885D01*
X68637Y7888D01*
X68647Y7890D01*
X68672Y7901D01*
X68705Y7915D01*
X68740Y7934D01*
X68779Y7956D01*
X68817Y7983D01*
X68849Y8013D01*
X68852Y8016D01*
X68855Y8019D01*
X68869Y8035D01*
X68891Y8062D01*
X68918Y8098D01*
X68945Y8144D01*
X68975Y8199D01*
X69005Y8262D01*
X69032Y8333D01*
Y8335D01*
X69035Y8341D01*
X69038Y8352D01*
X69043Y8368D01*
X69049Y8387D01*
X69054Y8412D01*
X69060Y8439D01*
X69068Y8469D01*
X69073Y8502D01*
X69079Y8540D01*
X69084Y8578D01*
X69090Y8622D01*
X69098Y8715D01*
X69101Y8818D01*
Y8824D01*
Y8835D01*
Y8857D01*
X69098Y8884D01*
Y8917D01*
X69095Y8955D01*
X69090Y8996D01*
X69084Y9042D01*
X69068Y9141D01*
X69046Y9242D01*
X69013Y9337D01*
X68992Y9384D01*
X68970Y9425D01*
X68967Y9427D01*
X68964Y9433D01*
X68956Y9444D01*
X68945Y9460D01*
X68934Y9477D01*
X68918Y9496D01*
X68882Y9539D01*
X68836Y9588D01*
X68781Y9635D01*
X68721Y9679D01*
X68688Y9695D01*
X68653Y9711D01*
X68650D01*
X68647Y9714D01*
X68639Y9717D01*
X68628Y9719D01*
X68612Y9722D01*
X68596Y9728D01*
X68574Y9733D01*
X68549Y9738D01*
X68522Y9741D01*
X68489Y9747D01*
X68454Y9752D01*
X68415Y9755D01*
X68372Y9758D01*
X68325Y9760D01*
X68276Y9763D01*
D02*
G37*
G36*
X62915Y22722D02*
X62333D01*
Y20798D01*
X62912D01*
X62934Y20800D01*
X62958D01*
X63013Y20803D01*
X63076Y20808D01*
X63141Y20817D01*
X63204Y20828D01*
X63261Y20841D01*
X63264D01*
X63267Y20844D01*
X63275Y20847D01*
X63286Y20849D01*
X63310Y20860D01*
X63343Y20874D01*
X63379Y20893D01*
X63417Y20915D01*
X63455Y20942D01*
X63488Y20972D01*
X63490Y20975D01*
X63493Y20978D01*
X63507Y20994D01*
X63529Y21021D01*
X63556Y21057D01*
X63583Y21103D01*
X63613Y21158D01*
X63643Y21221D01*
X63671Y21292D01*
Y21294D01*
X63673Y21300D01*
X63676Y21311D01*
X63682Y21327D01*
X63687Y21346D01*
X63693Y21371D01*
X63698Y21398D01*
X63706Y21428D01*
X63712Y21461D01*
X63717Y21499D01*
X63723Y21537D01*
X63728Y21581D01*
X63736Y21674D01*
X63739Y21778D01*
Y21783D01*
Y21794D01*
Y21816D01*
X63736Y21843D01*
Y21876D01*
X63734Y21914D01*
X63728Y21955D01*
X63723Y22001D01*
X63706Y22100D01*
X63684Y22201D01*
X63652Y22296D01*
X63630Y22343D01*
X63608Y22384D01*
X63605Y22386D01*
X63603Y22392D01*
X63594Y22403D01*
X63583Y22419D01*
X63572Y22435D01*
X63556Y22455D01*
X63521Y22498D01*
X63474Y22547D01*
X63420Y22594D01*
X63359Y22637D01*
X63327Y22654D01*
X63291Y22670D01*
X63288D01*
X63286Y22673D01*
X63278Y22676D01*
X63267Y22679D01*
X63250Y22681D01*
X63234Y22687D01*
X63212Y22692D01*
X63187Y22698D01*
X63160Y22700D01*
X63127Y22706D01*
X63092Y22711D01*
X63054Y22714D01*
X63010Y22717D01*
X62964Y22719D01*
X62915Y22722D01*
D02*
G37*
%LPD*%
D12*
X34488Y6933D02*
Y46067D01*
X394Y6933D02*
X34488D01*
X394D02*
Y46067D01*
X34488D01*
X40236Y15341D02*
X44764D01*
X40236Y6814D02*
Y15341D01*
Y6814D02*
X44764D01*
Y15341D01*
X74461Y35039D02*
X94539D01*
X74461Y14961D02*
Y35039D01*
Y14961D02*
X94539D01*
Y35039D01*
X87649Y3157D02*
Y11843D01*
Y3157D02*
X103422D01*
Y11843D01*
X87649D02*
X103422D01*
X84649Y40157D02*
Y48843D01*
Y40157D02*
X100422D01*
Y48843D01*
X84649D02*
X100422D01*
X116421Y28335D02*
Y32665D01*
X106579D02*
X116421D01*
X106579Y28335D02*
Y32665D01*
Y28335D02*
X116421D01*
X116874Y16335D02*
Y20665D01*
X107032D02*
X116874D01*
X107032Y16335D02*
Y20665D01*
Y16335D02*
X116874D01*
X40236Y37314D02*
X44764D01*
Y45841D01*
X40236D02*
X44764D01*
X40236Y37314D02*
Y45841D01*
X76460Y5138D02*
Y9862D01*
Y5138D02*
X85540D01*
Y9862D01*
X76460D02*
X85540D01*
M02*
