G04*
G04 #@! TF.GenerationSoftware,Altium Limited,Altium Designer,21.2.2 (38)*
G04*
G04 Layer_Color=0*
%FSLAX25Y25*%
%MOIN*%
G70*
G04*
G04 #@! TF.SameCoordinates,D102F6C4-1F96-4035-BECF-554025CD0FF2*
G04*
G04*
G04 #@! TF.FilePolarity,Positive*
G04*
G01*
G75*
%ADD37C,0.00394*%
D37*
X16732Y21386D02*
Y31614D01*
X11618Y26500D02*
X21846D01*
X40532Y11077D02*
X44469D01*
X42500Y9109D02*
Y13046D01*
X82531Y25000D02*
X86468D01*
X84500Y23031D02*
Y26969D01*
X95535Y5531D02*
Y9469D01*
X93567Y7500D02*
X97504D01*
X92535Y42531D02*
Y46468D01*
X90567Y44500D02*
X94504D01*
X111500Y28532D02*
Y32469D01*
X109531Y30500D02*
X113469D01*
X111953Y16532D02*
Y20469D01*
X109984Y18500D02*
X113921D01*
X40532Y41577D02*
X44469D01*
X42500Y39609D02*
Y43546D01*
X81000Y5531D02*
Y9469D01*
X79031Y7500D02*
X82968D01*
X76000Y45031D02*
Y48968D01*
X74032Y47000D02*
X77969D01*
X62000Y31532D02*
Y35469D01*
X60031Y33500D02*
X63968D01*
X62000Y5531D02*
Y9469D01*
X60031Y7500D02*
X63968D01*
X62000Y18531D02*
Y22468D01*
X60031Y20500D02*
X63968D01*
X62000Y44532D02*
Y48469D01*
X60031Y46500D02*
X63968D01*
M02*
