G04*
G04 #@! TF.GenerationSoftware,Altium Limited,Altium Designer,21.2.2 (38)*
G04*
G04 Layer_Color=8388736*
%FSLAX25Y25*%
%MOIN*%
G70*
G04*
G04 #@! TF.SameCoordinates,D102F6C4-1F96-4035-BECF-554025CD0FF2*
G04*
G04*
G04 #@! TF.FilePolarity,Negative*
G04*
G01*
G75*
%ADD15R,0.02756X0.01181*%
%ADD16R,0.02756X0.03937*%
%ADD17R,0.03394X0.02894*%
%ADD18R,0.09055X0.09055*%
G04:AMPARAMS|DCode=19|XSize=15.75mil|YSize=37.4mil|CornerRadius=7.87mil|HoleSize=0mil|Usage=FLASHONLY|Rotation=270.000|XOffset=0mil|YOffset=0mil|HoleType=Round|Shape=RoundedRectangle|*
%AMROUNDEDRECTD19*
21,1,0.01575,0.02165,0,0,270.0*
21,1,0.00000,0.03740,0,0,270.0*
1,1,0.01575,-0.01083,0.00000*
1,1,0.01575,-0.01083,0.00000*
1,1,0.01575,0.01083,0.00000*
1,1,0.01575,0.01083,0.00000*
%
%ADD19ROUNDEDRECTD19*%
G04:AMPARAMS|DCode=20|XSize=37.4mil|YSize=15.75mil|CornerRadius=7.87mil|HoleSize=0mil|Usage=FLASHONLY|Rotation=270.000|XOffset=0mil|YOffset=0mil|HoleType=Round|Shape=RoundedRectangle|*
%AMROUNDEDRECTD20*
21,1,0.03740,0.00000,0,0,270.0*
21,1,0.02165,0.01575,0,0,270.0*
1,1,0.01575,0.00000,-0.01083*
1,1,0.01575,0.00000,0.01083*
1,1,0.01575,0.00000,0.01083*
1,1,0.01575,0.00000,-0.01083*
%
%ADD20ROUNDEDRECTD20*%
%ADD21R,0.01575X0.03740*%
%ADD22R,0.03765X0.04749*%
%ADD24R,0.03150X0.03150*%
%ADD25R,0.03563X0.03568*%
%ADD26R,0.03937X0.03347*%
G04:AMPARAMS|DCode=27|XSize=43.31mil|YSize=82.68mil|CornerRadius=21.65mil|HoleSize=0mil|Usage=FLASHONLY|Rotation=270.000|XOffset=0mil|YOffset=0mil|HoleType=Round|Shape=RoundedRectangle|*
%AMROUNDEDRECTD27*
21,1,0.04331,0.03937,0,0,270.0*
21,1,0.00000,0.08268,0,0,270.0*
1,1,0.04331,-0.01968,0.00000*
1,1,0.04331,-0.01968,0.00000*
1,1,0.04331,0.01968,0.00000*
1,1,0.04331,0.01968,0.00000*
%
%ADD27ROUNDEDRECTD27*%
G04:AMPARAMS|DCode=28|XSize=43.31mil|YSize=102.36mil|CornerRadius=21.65mil|HoleSize=0mil|Usage=FLASHONLY|Rotation=270.000|XOffset=0mil|YOffset=0mil|HoleType=Round|Shape=RoundedRectangle|*
%AMROUNDEDRECTD28*
21,1,0.04331,0.05906,0,0,270.0*
21,1,0.00000,0.10236,0,0,270.0*
1,1,0.04331,-0.02953,0.00000*
1,1,0.04331,-0.02953,0.00000*
1,1,0.04331,0.02953,0.00000*
1,1,0.04331,0.02953,0.00000*
%
%ADD28ROUNDEDRECTD28*%
%ADD29R,0.06693X0.06693*%
%ADD30C,0.06693*%
%ADD31C,0.06181*%
%ADD32C,0.02362*%
D15*
X31575Y24532D02*
D03*
Y28468D02*
D03*
Y38311D02*
D03*
Y36342D02*
D03*
Y34374D02*
D03*
Y32405D02*
D03*
Y30437D02*
D03*
Y22563D02*
D03*
Y20595D02*
D03*
Y18626D02*
D03*
Y16657D02*
D03*
Y14689D02*
D03*
X26457Y17642D02*
D03*
Y19610D02*
D03*
Y21579D02*
D03*
Y23547D02*
D03*
Y25516D02*
D03*
Y27484D02*
D03*
Y29453D02*
D03*
Y31421D02*
D03*
Y33390D02*
D03*
Y35358D02*
D03*
D16*
Y38705D02*
D03*
Y14295D02*
D03*
D17*
X42500Y8654D02*
D03*
Y13500D02*
D03*
Y44000D02*
D03*
Y39154D02*
D03*
D18*
X84500Y25000D02*
D03*
D19*
X92276Y28839D02*
D03*
Y26280D02*
D03*
Y23720D02*
D03*
Y21161D02*
D03*
X76724D02*
D03*
Y23720D02*
D03*
Y26280D02*
D03*
Y28839D02*
D03*
D20*
X88339Y17224D02*
D03*
X85780D02*
D03*
X83220D02*
D03*
X80661D02*
D03*
Y32776D02*
D03*
X83220D02*
D03*
X85780D02*
D03*
D21*
X88339D02*
D03*
D22*
X99571Y7500D02*
D03*
X91500D02*
D03*
X96571Y44500D02*
D03*
X88500D02*
D03*
D24*
X108547Y30500D02*
D03*
X114453D02*
D03*
X109000Y18500D02*
D03*
X114906D02*
D03*
D25*
X83364Y7500D02*
D03*
X78636D02*
D03*
D26*
X111000Y41539D02*
D03*
Y46461D02*
D03*
X110823Y11461D02*
D03*
Y6539D02*
D03*
D27*
X29961Y43508D02*
D03*
Y9492D02*
D03*
D28*
X8858Y43508D02*
D03*
Y9492D02*
D03*
D29*
X126500Y37500D02*
D03*
D30*
Y27500D02*
D03*
Y17500D02*
D03*
D31*
X76000Y47000D02*
D03*
X62000Y33500D02*
D03*
Y7500D02*
D03*
Y20500D02*
D03*
Y46500D02*
D03*
D32*
X35678Y20608D02*
D03*
X87300Y2800D02*
D03*
X42500Y21100D02*
D03*
X40400Y29200D02*
D03*
X42300Y35700D02*
D03*
X28801Y23162D02*
D03*
X96767Y28595D02*
D03*
X85761Y36650D02*
D03*
X85735Y13602D02*
D03*
X71844Y29428D02*
D03*
X117499Y23367D02*
D03*
X117400Y26600D02*
D03*
X34500Y28500D02*
D03*
X28875Y25539D02*
D03*
M02*
