G04*
G04 #@! TF.GenerationSoftware,Altium Limited,Altium Designer,21.2.2 (38)*
G04*
G04 Layer_Color=32768*
%FSLAX25Y25*%
%MOIN*%
G70*
G04*
G04 #@! TF.SameCoordinates,D102F6C4-1F96-4035-BECF-554025CD0FF2*
G04*
G04*
G04 #@! TF.FilePolarity,Positive*
G04*
G01*
G75*
%ADD12C,0.00787*%
%ADD37C,0.00394*%
%ADD38C,0.00197*%
D12*
X70311Y47000D02*
X70398Y46012D01*
X70654Y45054D01*
X71073Y44155D01*
X71642Y43343D01*
X72343Y42642D01*
X73155Y42073D01*
X74054Y41654D01*
X75012Y41397D01*
X76000Y41311D01*
X76988Y41397D01*
X77946Y41654D01*
X78844Y42073D01*
X79657Y42642D01*
X80358Y43343D01*
X80927Y44155D01*
X81346Y45054D01*
X81603Y46012D01*
X81689Y47000D01*
X81603Y47988D01*
X81346Y48946D01*
X80927Y49845D01*
X80358Y50657D01*
X79657Y51358D01*
X78844Y51927D01*
X77946Y52346D01*
X76988Y52602D01*
X76000Y52689D01*
X75012Y52602D01*
X74054Y52346D01*
X73155Y51927D01*
X72343Y51358D01*
X71642Y50657D01*
X71073Y49845D01*
X70654Y48946D01*
X70398Y47988D01*
X70311Y47000D01*
X56311Y33500D02*
X56397Y32512D01*
X56654Y31554D01*
X57073Y30656D01*
X57642Y29843D01*
X58343Y29142D01*
X59155Y28573D01*
X60054Y28154D01*
X61012Y27897D01*
X62000Y27811D01*
X62988Y27897D01*
X63946Y28154D01*
X64845Y28573D01*
X65657Y29142D01*
X66358Y29843D01*
X66927Y30656D01*
X67346Y31554D01*
X67602Y32512D01*
X67689Y33500D01*
X67602Y34488D01*
X67346Y35446D01*
X66927Y36345D01*
X66358Y37157D01*
X65657Y37858D01*
X64845Y38427D01*
X63946Y38846D01*
X62988Y39103D01*
X62000Y39189D01*
X61012Y39103D01*
X60054Y38846D01*
X59155Y38427D01*
X58343Y37858D01*
X57642Y37157D01*
X57073Y36345D01*
X56654Y35446D01*
X56397Y34488D01*
X56311Y33500D01*
Y7500D02*
X56397Y6512D01*
X56654Y5554D01*
X57073Y4656D01*
X57642Y3843D01*
X58343Y3142D01*
X59155Y2573D01*
X60054Y2154D01*
X61012Y1897D01*
X62000Y1811D01*
X62988Y1897D01*
X63946Y2154D01*
X64845Y2573D01*
X65657Y3142D01*
X66358Y3843D01*
X66927Y4656D01*
X67346Y5554D01*
X67602Y6512D01*
X67689Y7500D01*
X67602Y8488D01*
X67346Y9446D01*
X66927Y10345D01*
X66358Y11157D01*
X65657Y11858D01*
X64845Y12427D01*
X63946Y12846D01*
X62988Y13103D01*
X62000Y13189D01*
X61012Y13103D01*
X60054Y12846D01*
X59155Y12427D01*
X58343Y11858D01*
X57642Y11157D01*
X57073Y10345D01*
X56654Y9446D01*
X56397Y8488D01*
X56311Y7500D01*
Y20500D02*
X56397Y19512D01*
X56654Y18554D01*
X57073Y17655D01*
X57642Y16843D01*
X58343Y16142D01*
X59155Y15573D01*
X60054Y15154D01*
X61012Y14897D01*
X62000Y14811D01*
X62988Y14897D01*
X63946Y15154D01*
X64845Y15573D01*
X65657Y16142D01*
X66358Y16843D01*
X66927Y17655D01*
X67346Y18554D01*
X67602Y19512D01*
X67689Y20500D01*
X67602Y21488D01*
X67346Y22446D01*
X66927Y23345D01*
X66358Y24157D01*
X65657Y24858D01*
X64845Y25427D01*
X63946Y25846D01*
X62988Y26103D01*
X62000Y26189D01*
X61012Y26103D01*
X60054Y25846D01*
X59155Y25427D01*
X58343Y24858D01*
X57642Y24157D01*
X57073Y23345D01*
X56654Y22446D01*
X56397Y21488D01*
X56311Y20500D01*
Y46500D02*
X56397Y45512D01*
X56654Y44554D01*
X57073Y43655D01*
X57642Y42843D01*
X58343Y42142D01*
X59155Y41573D01*
X60054Y41154D01*
X61012Y40897D01*
X62000Y40811D01*
X62988Y40897D01*
X63946Y41154D01*
X64845Y41573D01*
X65657Y42142D01*
X66358Y42843D01*
X66927Y43655D01*
X67346Y44554D01*
X67602Y45512D01*
X67689Y46500D01*
X67602Y47488D01*
X67346Y48446D01*
X66927Y49345D01*
X66358Y50157D01*
X65657Y50858D01*
X64845Y51427D01*
X63946Y51846D01*
X62988Y52103D01*
X62000Y52189D01*
X61012Y52103D01*
X60054Y51846D01*
X59155Y51427D01*
X58343Y50858D01*
X57642Y50157D01*
X57073Y49345D01*
X56654Y48446D01*
X56397Y47488D01*
X56311Y46500D01*
X34488Y6933D02*
Y46067D01*
X394Y6933D02*
X34488D01*
X394D02*
Y46067D01*
X34488D01*
X40236Y15341D02*
X44764D01*
X40236Y6814D02*
Y15341D01*
Y6814D02*
X44764D01*
Y15341D01*
X74461Y35039D02*
X94539D01*
X74461Y14961D02*
Y35039D01*
Y14961D02*
X94539D01*
Y35039D01*
X87649Y3157D02*
Y11843D01*
Y3157D02*
X103422D01*
Y11843D01*
X87649D02*
X103422D01*
X84649Y40157D02*
Y48843D01*
Y40157D02*
X100422D01*
Y48843D01*
X84649D02*
X100422D01*
X116421Y28335D02*
Y32665D01*
X106579D02*
X116421D01*
X106579Y28335D02*
Y32665D01*
Y28335D02*
X116421D01*
X116874Y16335D02*
Y20665D01*
X107032D02*
X116874D01*
X107032Y16335D02*
Y20665D01*
Y16335D02*
X116874D01*
X40236Y37314D02*
X44764D01*
Y45841D01*
X40236D02*
X44764D01*
X40236Y37314D02*
Y45841D01*
X76460Y5138D02*
Y9862D01*
Y5138D02*
X85540D01*
Y9862D01*
X76460D02*
X85540D01*
D37*
X126500Y25532D02*
Y29469D01*
X124531Y27500D02*
X128469D01*
X111000Y42130D02*
Y45870D01*
X109130Y44000D02*
X112870D01*
X110823Y7130D02*
Y10870D01*
X108953Y9000D02*
X112694D01*
D38*
X131795Y12106D02*
Y42894D01*
X121205D02*
X131795D01*
X121205Y12106D02*
X131795D01*
X121205D02*
Y42894D01*
X108638Y39669D02*
X113362D01*
X108638Y48331D02*
X113362D01*
X108638Y39669D02*
Y48331D01*
X113362Y39669D02*
Y48331D01*
X108461Y13331D02*
X113186D01*
X108461Y4669D02*
X113186D01*
Y13331D01*
X108461Y4669D02*
Y13331D01*
M02*
