G04*
G04 #@! TF.GenerationSoftware,Altium Limited,Altium Designer,21.2.2 (38)*
G04*
G04 Layer_Physical_Order=1*
G04 Layer_Color=255*
%FSLAX25Y25*%
%MOIN*%
G70*
G04*
G04 #@! TF.SameCoordinates,D102F6C4-1F96-4035-BECF-554025CD0FF2*
G04*
G04*
G04 #@! TF.FilePolarity,Positive*
G04*
G01*
G75*
%ADD15R,0.02756X0.01181*%
%ADD16R,0.02756X0.03937*%
%ADD17R,0.03394X0.02894*%
%ADD18R,0.09055X0.09055*%
G04:AMPARAMS|DCode=19|XSize=15.75mil|YSize=37.4mil|CornerRadius=7.87mil|HoleSize=0mil|Usage=FLASHONLY|Rotation=270.000|XOffset=0mil|YOffset=0mil|HoleType=Round|Shape=RoundedRectangle|*
%AMROUNDEDRECTD19*
21,1,0.01575,0.02165,0,0,270.0*
21,1,0.00000,0.03740,0,0,270.0*
1,1,0.01575,-0.01083,0.00000*
1,1,0.01575,-0.01083,0.00000*
1,1,0.01575,0.01083,0.00000*
1,1,0.01575,0.01083,0.00000*
%
%ADD19ROUNDEDRECTD19*%
G04:AMPARAMS|DCode=20|XSize=37.4mil|YSize=15.75mil|CornerRadius=7.87mil|HoleSize=0mil|Usage=FLASHONLY|Rotation=270.000|XOffset=0mil|YOffset=0mil|HoleType=Round|Shape=RoundedRectangle|*
%AMROUNDEDRECTD20*
21,1,0.03740,0.00000,0,0,270.0*
21,1,0.02165,0.01575,0,0,270.0*
1,1,0.01575,0.00000,-0.01083*
1,1,0.01575,0.00000,0.01083*
1,1,0.01575,0.00000,0.01083*
1,1,0.01575,0.00000,-0.01083*
%
%ADD20ROUNDEDRECTD20*%
%ADD21R,0.01575X0.03740*%
%ADD22R,0.03765X0.04749*%
%ADD23R,0.03347X0.02756*%
%ADD24R,0.03150X0.03150*%
%ADD25R,0.03563X0.03568*%
G04:AMPARAMS|DCode=27|XSize=43.31mil|YSize=82.68mil|CornerRadius=21.65mil|HoleSize=0mil|Usage=FLASHONLY|Rotation=270.000|XOffset=0mil|YOffset=0mil|HoleType=Round|Shape=RoundedRectangle|*
%AMROUNDEDRECTD27*
21,1,0.04331,0.03937,0,0,270.0*
21,1,0.00000,0.08268,0,0,270.0*
1,1,0.04331,-0.01968,0.00000*
1,1,0.04331,-0.01968,0.00000*
1,1,0.04331,0.01968,0.00000*
1,1,0.04331,0.01968,0.00000*
%
%ADD27ROUNDEDRECTD27*%
G04:AMPARAMS|DCode=28|XSize=43.31mil|YSize=102.36mil|CornerRadius=21.65mil|HoleSize=0mil|Usage=FLASHONLY|Rotation=270.000|XOffset=0mil|YOffset=0mil|HoleType=Round|Shape=RoundedRectangle|*
%AMROUNDEDRECTD28*
21,1,0.04331,0.05906,0,0,270.0*
21,1,0.00000,0.10236,0,0,270.0*
1,1,0.04331,-0.02953,0.00000*
1,1,0.04331,-0.02953,0.00000*
1,1,0.04331,0.02953,0.00000*
1,1,0.04331,0.02953,0.00000*
%
%ADD28ROUNDEDRECTD28*%
%ADD31C,0.06181*%
%ADD33C,0.00400*%
%ADD34R,0.06102X0.06102*%
%ADD35C,0.06102*%
%ADD36C,0.01772*%
G36*
X147500Y2500D02*
X93177D01*
X92986Y2962D01*
X94700Y4676D01*
X97889D01*
X98008Y4726D01*
X99371D01*
Y7300D01*
X97289D01*
Y5975D01*
X94431D01*
X94282Y5914D01*
X93782Y6248D01*
Y10274D01*
X89218D01*
Y8149D01*
X85546D01*
Y9684D01*
X83870D01*
Y13275D01*
X84349Y13326D01*
X84560Y12817D01*
X84950Y12427D01*
X85459Y12216D01*
X86010D01*
X86520Y12427D01*
X86910Y12817D01*
X87120Y13326D01*
Y13877D01*
X86910Y14387D01*
X86588Y14708D01*
X86584Y15091D01*
X86800Y15507D01*
X87329D01*
X87337Y15504D01*
X87483Y15286D01*
X87875Y15023D01*
X88339Y14931D01*
X88802Y15023D01*
X89195Y15286D01*
X89457Y15678D01*
X89549Y16142D01*
Y18307D01*
X89502Y18545D01*
X89829Y19045D01*
X97436D01*
X106251Y10231D01*
Y7600D01*
X106441Y7141D01*
X107501Y6080D01*
X107961Y5890D01*
X108750D01*
Y4761D01*
X112897D01*
Y8317D01*
X108750D01*
Y7189D01*
X108230D01*
X107549Y7869D01*
Y10500D01*
X107359Y10959D01*
X98165Y20154D01*
X97706Y20344D01*
X94796D01*
X94506Y20844D01*
X94529Y20961D01*
X92276D01*
Y21361D01*
X94529D01*
X94477Y21625D01*
X94214Y22017D01*
X93996Y22163D01*
X93993Y22171D01*
Y22711D01*
X93996Y22719D01*
X94214Y22864D01*
X94477Y23257D01*
X94569Y23720D01*
X94477Y24184D01*
X94214Y24577D01*
X93996Y24722D01*
X93993Y24730D01*
Y25270D01*
X93996Y25278D01*
X94214Y25423D01*
X94352Y25630D01*
X94451D01*
X94911Y25820D01*
X96356Y27265D01*
X96491Y27209D01*
X97043D01*
X97552Y27420D01*
X97942Y27810D01*
X98153Y28319D01*
Y28871D01*
X97942Y29380D01*
X97552Y29770D01*
X97043Y29981D01*
X96491D01*
X95982Y29770D01*
X95592Y29380D01*
X95381Y28871D01*
Y28319D01*
X95437Y28184D01*
X94459Y27205D01*
X94063Y27379D01*
X94046Y27870D01*
X94214Y27983D01*
X94477Y28375D01*
X94569Y28839D01*
X94477Y29302D01*
X94214Y29695D01*
X93822Y29957D01*
X93358Y30049D01*
X91193D01*
X90730Y29957D01*
X90337Y29695D01*
X90074Y29302D01*
X89982Y28839D01*
X90074Y28375D01*
X90337Y27983D01*
X90555Y27837D01*
X90558Y27829D01*
Y27289D01*
X90555Y27281D01*
X90337Y27136D01*
X90074Y26743D01*
X89982Y26280D01*
X90074Y25816D01*
X90337Y25423D01*
X90555Y25278D01*
X90558Y25270D01*
Y24730D01*
X90555Y24722D01*
X90337Y24577D01*
X90074Y24184D01*
X89982Y23720D01*
X90074Y23257D01*
X90337Y22864D01*
X90555Y22719D01*
X90558Y22711D01*
Y22171D01*
X90555Y22163D01*
X90337Y22017D01*
X90074Y21625D01*
X89982Y21161D01*
X89986Y21143D01*
X89560Y20740D01*
X89428Y20775D01*
Y24800D01*
X84500D01*
Y25200D01*
X89428D01*
Y29928D01*
X88662D01*
X88395Y30428D01*
X88447Y30505D01*
X89526D01*
Y35046D01*
X89149D01*
Y41726D01*
X90782D01*
Y46356D01*
X92277Y47851D01*
X99725D01*
X101574Y46001D01*
X102033Y45811D01*
X108927D01*
Y44683D01*
X113073D01*
Y48239D01*
X108927D01*
Y47110D01*
X102302D01*
X100453Y48959D01*
X99994Y49149D01*
X92008D01*
X91549Y48959D01*
X89864Y47274D01*
X87136D01*
X86951Y47459D01*
X86492Y47649D01*
X79440D01*
X79253Y48347D01*
X78793Y49143D01*
X78143Y49793D01*
X77347Y50253D01*
X76459Y50491D01*
X75541D01*
X74653Y50253D01*
X73857Y49793D01*
X73207Y49143D01*
X72747Y48347D01*
X72509Y47460D01*
Y46540D01*
X72747Y45653D01*
X73207Y44857D01*
X73857Y44207D01*
X74653Y43747D01*
X75541Y43509D01*
X76459D01*
X77347Y43747D01*
X78143Y44207D01*
X78793Y44857D01*
X79253Y45653D01*
X79440Y46351D01*
X86218D01*
Y41726D01*
X87851D01*
Y35046D01*
X87151D01*
Y35046D01*
X86651Y34942D01*
X86621Y34965D01*
X86592Y35160D01*
X86609Y35538D01*
X86936Y35865D01*
X87147Y36374D01*
Y36926D01*
X86936Y37435D01*
X86546Y37825D01*
X86037Y38036D01*
X85486D01*
X84976Y37825D01*
X84586Y37435D01*
X84375Y36926D01*
Y36374D01*
X84586Y35865D01*
X84976Y35475D01*
X85130Y35411D01*
Y34852D01*
X84923Y34714D01*
X84778Y34496D01*
X84770Y34493D01*
X84230D01*
X84222Y34496D01*
X84076Y34714D01*
X83684Y34977D01*
X83420Y35029D01*
Y32776D01*
X83021D01*
Y35029D01*
X82757Y34977D01*
X82364Y34714D01*
X82219Y34496D01*
X82211Y34493D01*
X81671D01*
X81663Y34496D01*
X81517Y34714D01*
X81125Y34977D01*
X80661Y35069D01*
X80198Y34977D01*
X79805Y34714D01*
X79543Y34322D01*
X79451Y33858D01*
Y31693D01*
X79543Y31230D01*
X79571Y31188D01*
X79443Y30765D01*
X78913Y30235D01*
X78879Y30152D01*
X78270Y29957D01*
X77807Y30049D01*
X75642D01*
X75178Y29957D01*
X74786Y29695D01*
X74648Y29488D01*
X73229D01*
Y29704D01*
X73018Y30213D01*
X72629Y30603D01*
X72119Y30814D01*
X71568D01*
X71059Y30603D01*
X70669Y30213D01*
X70458Y29704D01*
Y29153D01*
X70669Y28643D01*
X70828Y28484D01*
X70621Y27984D01*
X62649D01*
Y30060D01*
X63347Y30247D01*
X64143Y30707D01*
X64793Y31357D01*
X65253Y32153D01*
X65491Y33040D01*
Y33959D01*
X65253Y34847D01*
X64793Y35643D01*
X64143Y36293D01*
X63347Y36753D01*
X62459Y36991D01*
X61541D01*
X60653Y36753D01*
X59857Y36293D01*
X59207Y35643D01*
X58747Y34847D01*
X58509Y33959D01*
Y33040D01*
X58747Y32153D01*
X59207Y31357D01*
X59857Y30707D01*
X60653Y30247D01*
X61351Y30060D01*
Y28003D01*
X61331Y27984D01*
X41851D01*
X41714Y28197D01*
X41603Y28484D01*
X41786Y28924D01*
Y29476D01*
X41575Y29985D01*
X41185Y30375D01*
X40676Y30586D01*
X40124D01*
X39989Y30530D01*
X39622Y30896D01*
X39163Y31087D01*
X33353D01*
Y31756D01*
X47905D01*
X48365Y31946D01*
X60027Y43609D01*
X60653Y43247D01*
X61541Y43009D01*
X62459D01*
X63347Y43247D01*
X64143Y43707D01*
X64793Y44357D01*
X65253Y45153D01*
X65491Y46040D01*
Y46959D01*
X65253Y47847D01*
X64793Y48643D01*
X64143Y49293D01*
X63347Y49753D01*
X62459Y49991D01*
X61541D01*
X60653Y49753D01*
X59857Y49293D01*
X59207Y48643D01*
X58747Y47847D01*
X58509Y46959D01*
Y46040D01*
X58747Y45153D01*
X59109Y44527D01*
X47637Y33055D01*
X33353D01*
Y35352D01*
Y38111D01*
X31575D01*
Y38311D01*
X31375D01*
Y39302D01*
X31046D01*
Y39979D01*
X30856Y40438D01*
X31081Y40920D01*
X31929D01*
X32599Y41009D01*
X33223Y41267D01*
X33759Y41678D01*
X34170Y42214D01*
X34429Y42838D01*
X34490Y43308D01*
X29961D01*
Y43508D01*
X29761D01*
Y46095D01*
X27992D01*
X27322Y46007D01*
X26698Y45749D01*
X26162Y45338D01*
X25751Y44802D01*
X25493Y44178D01*
X25490Y44157D01*
X14313D01*
X14310Y44178D01*
X14052Y44802D01*
X13641Y45338D01*
X13105Y45749D01*
X12481Y46007D01*
X11811Y46095D01*
X9058D01*
Y43508D01*
X8858D01*
Y43308D01*
X3344D01*
X3406Y42838D01*
X3665Y42214D01*
X4076Y41678D01*
X4612Y41267D01*
X4743Y41213D01*
X4643Y40713D01*
X2500D01*
Y52500D01*
X147500D01*
Y2500D01*
D02*
G37*
G36*
X25493Y42838D02*
X25751Y42214D01*
X26162Y41678D01*
X26299Y41573D01*
X26130Y41073D01*
X24679D01*
Y41001D01*
X24179Y40694D01*
X24134Y40713D01*
X13073D01*
X12974Y41213D01*
X13105Y41267D01*
X13641Y41678D01*
X14052Y42214D01*
X14310Y42838D01*
X14313Y42858D01*
X25490D01*
X25493Y42838D01*
D02*
G37*
G36*
X73220Y23261D02*
X73680Y23071D01*
X74648D01*
X74786Y22864D01*
X75004Y22719D01*
X75007Y22711D01*
Y22171D01*
X75004Y22163D01*
X74786Y22017D01*
X74523Y21625D01*
X74431Y21161D01*
X74523Y20698D01*
X74786Y20305D01*
X75178Y20043D01*
X75642Y19951D01*
X77807D01*
X78223Y20033D01*
X78305Y20020D01*
X78723Y19744D01*
Y19596D01*
X78913Y19137D01*
X79499Y18551D01*
X79451Y18307D01*
Y16142D01*
X79543Y15678D01*
X79805Y15286D01*
X80198Y15023D01*
X80661Y14931D01*
X81125Y15023D01*
X81517Y15286D01*
X81663Y15504D01*
X81671Y15507D01*
X82211D01*
X82219Y15504D01*
X82364Y15286D01*
X82571Y15148D01*
Y9684D01*
X81183D01*
Y9684D01*
X80817D01*
Y9684D01*
X78836D01*
Y7500D01*
X78636D01*
Y7300D01*
X76454D01*
Y5316D01*
X77351D01*
Y2500D01*
X2500D01*
Y12288D01*
X4645D01*
X4744Y11788D01*
X4612Y11733D01*
X4076Y11322D01*
X3665Y10786D01*
X3406Y10162D01*
X3344Y9692D01*
X8858D01*
Y9492D01*
X9058D01*
Y6905D01*
X11811D01*
X12481Y6993D01*
X13105Y7251D01*
X13641Y7662D01*
X14052Y8198D01*
X14310Y8822D01*
X14313Y8843D01*
X25490D01*
X25493Y8822D01*
X25751Y8198D01*
X26162Y7662D01*
X26698Y7251D01*
X27322Y6993D01*
X27992Y6905D01*
X29761D01*
Y9492D01*
X29961D01*
Y9692D01*
X34490D01*
X34429Y10162D01*
X34170Y10786D01*
X33759Y11322D01*
X33223Y11733D01*
X32599Y11992D01*
X31929Y12080D01*
X31046D01*
Y13698D01*
X31375D01*
Y14689D01*
X31575D01*
Y14889D01*
X33353D01*
Y15667D01*
Y19945D01*
X34453D01*
X34503Y19823D01*
X34893Y19433D01*
X35403Y19222D01*
X35954D01*
X36463Y19433D01*
X36853Y19823D01*
X37064Y20333D01*
Y20884D01*
X36853Y21393D01*
X36463Y21783D01*
X35954Y21994D01*
X35403D01*
X34893Y21783D01*
X34503Y21393D01*
X34441Y21244D01*
X33353D01*
Y23882D01*
X34366D01*
X34825Y24072D01*
X35059Y24307D01*
X35249Y24766D01*
Y25051D01*
X39731D01*
X40191Y25241D01*
X40835Y25885D01*
X61331D01*
X61351Y25865D01*
Y23940D01*
X60653Y23753D01*
X59857Y23293D01*
X59207Y22643D01*
X58747Y21847D01*
X58509Y20959D01*
Y20041D01*
X58747Y19153D01*
X59207Y18357D01*
X59857Y17707D01*
X60653Y17247D01*
X61541Y17009D01*
X62459D01*
X63347Y17247D01*
X64143Y17707D01*
X64793Y18357D01*
X65253Y19153D01*
X65491Y20041D01*
Y20959D01*
X65253Y21847D01*
X64793Y22643D01*
X64143Y23293D01*
X63347Y23753D01*
X62649Y23940D01*
Y25885D01*
X70597D01*
X73220Y23261D01*
D02*
G37*
G36*
X24679Y12000D02*
Y11927D01*
X26130D01*
X26299Y11427D01*
X26162Y11322D01*
X25751Y10786D01*
X25493Y10162D01*
X25490Y10142D01*
X14313D01*
X14310Y10162D01*
X14052Y10786D01*
X13641Y11322D01*
X13105Y11733D01*
X12972Y11788D01*
X13072Y12288D01*
X24134D01*
X24179Y12306D01*
X24679Y12000D01*
D02*
G37*
%LPC*%
G36*
X98853Y47274D02*
X96771D01*
Y44700D01*
X98853D01*
Y47274D01*
D02*
G37*
G36*
X96371D02*
X94289D01*
Y44700D01*
X96371D01*
Y47274D01*
D02*
G37*
G36*
X44597Y45847D02*
X42700D01*
Y44200D01*
X44597D01*
Y45847D01*
D02*
G37*
G36*
X42300D02*
X40403D01*
Y44200D01*
X42300D01*
Y45847D01*
D02*
G37*
G36*
X31929Y46095D02*
X30161D01*
Y43708D01*
X34490D01*
X34429Y44178D01*
X34170Y44802D01*
X33759Y45338D01*
X33223Y45749D01*
X32599Y46007D01*
X31929Y46095D01*
D02*
G37*
G36*
X8658D02*
X5906D01*
X5236Y46007D01*
X4612Y45749D01*
X4076Y45338D01*
X3665Y44802D01*
X3406Y44178D01*
X3344Y43708D01*
X8658D01*
Y46095D01*
D02*
G37*
G36*
X44597Y43800D02*
X42700D01*
Y42153D01*
X44597D01*
Y43800D01*
D02*
G37*
G36*
X42300D02*
X40403D01*
Y42153D01*
X42300D01*
Y43800D01*
D02*
G37*
G36*
X98853Y44300D02*
X96771D01*
Y41726D01*
X98853D01*
Y44300D01*
D02*
G37*
G36*
X96371D02*
X94289D01*
Y41726D01*
X96371D01*
Y44300D01*
D02*
G37*
G36*
X33353Y39302D02*
X31775D01*
Y38511D01*
X33353D01*
Y39302D01*
D02*
G37*
G36*
X129951Y40951D02*
X126700D01*
Y37700D01*
X129951D01*
Y40951D01*
D02*
G37*
G36*
X126300D02*
X123049D01*
Y37700D01*
X126300D01*
Y40951D01*
D02*
G37*
G36*
X44597Y41001D02*
X40403D01*
Y37308D01*
X41294D01*
X41387Y37126D01*
X41448Y36808D01*
X41125Y36485D01*
X40914Y35976D01*
Y35424D01*
X41125Y34915D01*
X41515Y34525D01*
X42024Y34314D01*
X42576D01*
X43085Y34525D01*
X43475Y34915D01*
X43686Y35424D01*
Y35976D01*
X43475Y36485D01*
X43152Y36808D01*
X43213Y37126D01*
X43306Y37308D01*
X44597D01*
Y41001D01*
D02*
G37*
G36*
X129951Y37300D02*
X126700D01*
Y34049D01*
X129951D01*
Y37300D01*
D02*
G37*
G36*
X126300D02*
X123049D01*
Y34049D01*
X126300D01*
Y37300D01*
D02*
G37*
G36*
X113073Y43317D02*
X108927D01*
Y40680D01*
X108088Y39841D01*
X107898Y39382D01*
Y32475D01*
X106572D01*
Y28525D01*
X110522D01*
Y32475D01*
X109197D01*
Y39113D01*
X109845Y39761D01*
X113073D01*
Y43317D01*
D02*
G37*
G36*
X126954Y30951D02*
X126046D01*
X125168Y30716D01*
X124381Y30262D01*
X123738Y29619D01*
X123284Y28832D01*
X123049Y27954D01*
Y27046D01*
X123284Y26168D01*
X123738Y25381D01*
X124381Y24738D01*
X125168Y24284D01*
X126046Y24049D01*
X126954D01*
X127832Y24284D01*
X128619Y24738D01*
X129262Y25381D01*
X129716Y26168D01*
X129951Y27046D01*
Y27954D01*
X129716Y28832D01*
X129262Y29619D01*
X128619Y30262D01*
X127832Y30716D01*
X126954Y30951D01*
D02*
G37*
G36*
X116428Y32475D02*
X112478D01*
Y28525D01*
X115509D01*
X116437Y27597D01*
X116225Y27385D01*
X116014Y26876D01*
Y26324D01*
X116225Y25815D01*
X116615Y25425D01*
X117122Y25215D01*
X117124Y25205D01*
X117129Y24714D01*
X116714Y24542D01*
X116324Y24152D01*
X116113Y23643D01*
Y23092D01*
X116169Y22956D01*
X114446Y21233D01*
X114256Y20774D01*
Y20475D01*
X112931D01*
Y16525D01*
X116880D01*
Y20475D01*
X116232D01*
X116025Y20975D01*
X117088Y22038D01*
X117223Y21982D01*
X117774D01*
X118284Y22193D01*
X118674Y22582D01*
X118885Y23092D01*
Y23643D01*
X118674Y24152D01*
X118284Y24542D01*
X117777Y24752D01*
X117774Y24763D01*
X117770Y25253D01*
X118185Y25425D01*
X118575Y25815D01*
X118786Y26324D01*
Y26876D01*
X118575Y27385D01*
X118185Y27775D01*
X117725Y27966D01*
X117597Y28274D01*
X116428Y29444D01*
Y32475D01*
D02*
G37*
G36*
X126954Y20951D02*
X126046D01*
X125168Y20716D01*
X124381Y20262D01*
X123738Y19619D01*
X123284Y18832D01*
X123049Y17954D01*
Y17046D01*
X123284Y16168D01*
X123738Y15381D01*
X124381Y14738D01*
X125168Y14284D01*
X126046Y14049D01*
X126954D01*
X127832Y14284D01*
X128619Y14738D01*
X129262Y15381D01*
X129716Y16168D01*
X129951Y17046D01*
Y17954D01*
X129716Y18832D01*
X129262Y19619D01*
X128619Y20262D01*
X127832Y20716D01*
X126954Y20951D01*
D02*
G37*
G36*
X110975Y20475D02*
X107025D01*
Y16525D01*
X110056D01*
X110174Y16408D01*
Y13239D01*
X108750D01*
Y9683D01*
X112897D01*
Y13239D01*
X111473D01*
Y16677D01*
X111283Y17136D01*
X110975Y17444D01*
Y20475D01*
D02*
G37*
G36*
X101853Y10274D02*
X99771D01*
Y7700D01*
X101853D01*
Y10274D01*
D02*
G37*
G36*
X99371D02*
X97289D01*
Y7700D01*
X99371D01*
Y10274D01*
D02*
G37*
G36*
X101853Y7300D02*
X99771D01*
Y4726D01*
X101853D01*
Y7300D01*
D02*
G37*
G36*
X33353Y14489D02*
X31775D01*
Y13698D01*
X33353D01*
Y14489D01*
D02*
G37*
G36*
X42776Y22486D02*
X42224D01*
X41715Y22275D01*
X41325Y21885D01*
X41114Y21376D01*
Y20824D01*
X41325Y20315D01*
X41715Y19925D01*
X41851Y19869D01*
Y15347D01*
X40403D01*
Y11653D01*
X44597D01*
Y15347D01*
X43149D01*
Y19869D01*
X43285Y19925D01*
X43675Y20315D01*
X43886Y20824D01*
Y21376D01*
X43675Y21885D01*
X43285Y22275D01*
X42776Y22486D01*
D02*
G37*
G36*
X44597Y10501D02*
X42700D01*
Y8854D01*
X44597D01*
Y10501D01*
D02*
G37*
G36*
X42300D02*
X40403D01*
Y8854D01*
X42300D01*
Y10501D01*
D02*
G37*
G36*
X78436Y9684D02*
X76454D01*
Y7700D01*
X78436D01*
Y9684D01*
D02*
G37*
G36*
X62459Y10991D02*
X62200D01*
Y7700D01*
X65491D01*
Y7959D01*
X65253Y8847D01*
X64793Y9643D01*
X64143Y10293D01*
X63347Y10753D01*
X62459Y10991D01*
D02*
G37*
G36*
X61800D02*
X61541D01*
X60653Y10753D01*
X59857Y10293D01*
X59207Y9643D01*
X58747Y8847D01*
X58509Y7959D01*
Y7700D01*
X61800D01*
Y10991D01*
D02*
G37*
G36*
X34490Y9292D02*
X30161D01*
Y6905D01*
X31929D01*
X32599Y6993D01*
X33223Y7251D01*
X33759Y7662D01*
X34170Y8198D01*
X34429Y8822D01*
X34490Y9292D01*
D02*
G37*
G36*
X8658D02*
X3344D01*
X3406Y8822D01*
X3665Y8198D01*
X4076Y7662D01*
X4612Y7251D01*
X5236Y6993D01*
X5906Y6905D01*
X8658D01*
Y9292D01*
D02*
G37*
G36*
X44597Y8454D02*
X42700D01*
Y6808D01*
X44597D01*
Y8454D01*
D02*
G37*
G36*
X42300D02*
X40403D01*
Y6808D01*
X42300D01*
Y8454D01*
D02*
G37*
G36*
X65491Y7300D02*
X62200D01*
Y4009D01*
X62459D01*
X63347Y4247D01*
X64143Y4707D01*
X64793Y5357D01*
X65253Y6153D01*
X65491Y7040D01*
Y7300D01*
D02*
G37*
G36*
X61800D02*
X58509D01*
Y7040D01*
X58747Y6153D01*
X59207Y5357D01*
X59857Y4707D01*
X60653Y4247D01*
X61541Y4009D01*
X61800D01*
Y7300D01*
D02*
G37*
%LPD*%
D15*
X31575Y24532D02*
D03*
Y28468D02*
D03*
Y38311D02*
D03*
Y36342D02*
D03*
Y34374D02*
D03*
Y32405D02*
D03*
Y30437D02*
D03*
Y22563D02*
D03*
Y20595D02*
D03*
Y18626D02*
D03*
Y16657D02*
D03*
Y14689D02*
D03*
X26457Y17642D02*
D03*
Y19610D02*
D03*
Y21579D02*
D03*
Y23547D02*
D03*
Y25516D02*
D03*
Y27484D02*
D03*
Y29453D02*
D03*
Y31421D02*
D03*
Y33390D02*
D03*
Y35358D02*
D03*
D16*
Y38705D02*
D03*
Y14295D02*
D03*
D17*
X42500Y8654D02*
D03*
Y13500D02*
D03*
Y44000D02*
D03*
Y39154D02*
D03*
D18*
X84500Y25000D02*
D03*
D19*
X92276Y28839D02*
D03*
Y26280D02*
D03*
Y23720D02*
D03*
Y21161D02*
D03*
X76724D02*
D03*
Y23720D02*
D03*
Y26280D02*
D03*
Y28839D02*
D03*
D20*
X88339Y17224D02*
D03*
X85780D02*
D03*
X83220D02*
D03*
X80661D02*
D03*
Y32776D02*
D03*
X83220D02*
D03*
X85780D02*
D03*
D21*
X88339D02*
D03*
D22*
X99571Y7500D02*
D03*
X91500D02*
D03*
X96571Y44500D02*
D03*
X88500D02*
D03*
D23*
X111000Y41539D02*
D03*
Y46461D02*
D03*
X110823Y11461D02*
D03*
Y6539D02*
D03*
D24*
X108547Y30500D02*
D03*
X114453D02*
D03*
X109000Y18500D02*
D03*
X114906D02*
D03*
D25*
X83364Y7500D02*
D03*
X78636D02*
D03*
D27*
X29961Y43508D02*
D03*
Y9492D02*
D03*
D28*
X8858Y43508D02*
D03*
Y9492D02*
D03*
D31*
X76000Y47000D02*
D03*
X62000Y33500D02*
D03*
Y7500D02*
D03*
Y20500D02*
D03*
Y46500D02*
D03*
D33*
X78000Y1500D02*
Y6864D01*
X78636Y7500D01*
X97889Y5326D02*
X99571Y7008D01*
X94431Y5326D02*
X97889D01*
X90319Y1214D02*
X94431Y5326D01*
X99571Y7008D02*
Y7500D01*
X78286Y1214D02*
X90319D01*
X78000Y1500D02*
X78286Y1214D01*
X35664Y20595D02*
X35678Y20608D01*
X31575Y20595D02*
X35664D01*
X8858Y9492D02*
X29961D01*
X8858Y43508D02*
X29961D01*
X30394Y38705D02*
X30397Y38702D01*
X30787Y38311D01*
X30397Y38702D02*
Y39979D01*
X30787Y38311D02*
X31575D01*
X29961Y40415D02*
X30397Y39979D01*
X29961Y40415D02*
Y43508D01*
X26457Y38705D02*
X30394D01*
X26850Y14689D02*
X30787D01*
X31575D01*
X30397Y14298D02*
X30787Y14689D01*
X30397Y9928D02*
Y14298D01*
X29961Y9492D02*
X30397Y9928D01*
X26457Y14295D02*
X26850Y14689D01*
X31591Y28484D02*
X34484D01*
X34500Y28500D01*
X31575Y28468D02*
X31591Y28484D01*
X47905Y32405D02*
X62000Y46500D01*
X31575Y32405D02*
X47905D01*
X83364Y7498D02*
X87037Y3825D01*
Y3063D02*
Y3825D01*
X83364Y7498D02*
Y7500D01*
X87037Y3063D02*
X87300Y2800D01*
X107961Y6539D02*
X110823D01*
X106900Y7600D02*
X107961Y6539D01*
X106900Y7600D02*
Y10500D01*
X97706Y19694D02*
X106900Y10500D01*
X82049Y19694D02*
X97706D01*
X80661Y18307D02*
X82049Y19694D01*
X80661Y17224D02*
Y18307D01*
X79372Y19596D02*
X80661Y18307D01*
X79372Y19596D02*
Y21872D01*
X76724Y21161D02*
X76949Y21386D01*
X78886D01*
X79372Y21872D01*
Y29776D01*
X79902Y30305D01*
X86951D01*
X88339Y31693D01*
Y32776D01*
X88500Y44500D02*
Y44992D01*
X92008Y48500D01*
X99994D02*
X102033Y46461D01*
X92008Y48500D02*
X99994D01*
X102033Y46461D02*
X111000D01*
X86492Y47000D02*
X88500Y44992D01*
X76000Y47000D02*
X86492D01*
X88500Y32937D02*
Y44500D01*
X88339Y32776D02*
X88500Y32937D01*
X42500Y13500D02*
Y21100D01*
X39163Y30437D02*
X40400Y29200D01*
X31575Y30437D02*
X39163D01*
X42300Y35700D02*
Y38954D01*
X42500Y39154D01*
X26457Y23547D02*
X26649Y23355D01*
X28609D01*
X28801Y23162D01*
X83220Y7644D02*
Y17224D01*
Y7644D02*
X83364Y7500D01*
X91500D01*
X109000Y18500D02*
X110823Y16677D01*
Y11461D02*
Y16677D01*
X110705Y41539D02*
X111000D01*
X108547Y30500D02*
Y39382D01*
X110705Y41539D01*
X94451Y26280D02*
X96767Y28595D01*
X92276Y26280D02*
X94451D01*
X85761Y36650D02*
X85780Y36632D01*
Y32776D02*
Y36632D01*
X85735Y13602D02*
X85780Y13647D01*
Y17224D01*
X71844Y29428D02*
X72433Y28839D01*
X76724D01*
X114906Y20774D02*
X117499Y23367D01*
X114906Y18500D02*
Y20774D01*
X117138Y26862D02*
Y27815D01*
X114453Y30500D02*
X117138Y27815D01*
Y26862D02*
X117400Y26600D01*
X26457Y21579D02*
X28719D01*
X29597Y20701D01*
X31468D01*
X31575Y20595D01*
X28719Y31421D02*
X29597Y32299D01*
X31468D01*
X26457Y31421D02*
X28719D01*
X31468Y32299D02*
X31575Y32405D01*
X61600Y26534D02*
X70866D01*
X40566D02*
X61600D01*
X29516Y27484D02*
X32469Y24532D01*
X61600Y27334D02*
X71197D01*
X40234D02*
X61600D01*
X70866Y26534D02*
X73000Y24400D01*
X39731Y25700D02*
X40566Y26534D01*
X34834Y25700D02*
X39731D01*
X73680Y23720D02*
X76724D01*
X73000Y24400D02*
X73680Y23720D01*
X34600Y25466D02*
X34834Y25700D01*
X34600Y24766D02*
Y25466D01*
X26457Y27484D02*
X29516D01*
X34366Y24532D02*
X34600Y24766D01*
X32469Y24532D02*
X34366D01*
X31575D02*
X32469D01*
X39400Y26500D02*
X40234Y27334D01*
X34500Y26734D02*
X34734Y26500D01*
X39400D01*
X74328Y24966D02*
X75642Y26280D01*
X76724D01*
X71197Y27334D02*
X73566Y24966D01*
X74328D01*
X34500Y26734D02*
Y28500D01*
X28863Y25528D02*
X28875Y25539D01*
X26469Y25528D02*
X28863D01*
X26457Y25516D02*
X26469Y25528D01*
X61600Y26534D02*
X62000Y26134D01*
Y20500D02*
Y26134D01*
Y27734D02*
Y33500D01*
X61600Y27334D02*
X62000Y27734D01*
D34*
X126500Y37500D02*
D03*
D35*
Y27500D02*
D03*
Y17500D02*
D03*
D36*
X35678Y20608D02*
D03*
X87300Y2800D02*
D03*
X42500Y21100D02*
D03*
X40400Y29200D02*
D03*
X42300Y35700D02*
D03*
X28801Y23162D02*
D03*
X96767Y28595D02*
D03*
X85761Y36650D02*
D03*
X85735Y13602D02*
D03*
X71844Y29428D02*
D03*
X117499Y23367D02*
D03*
X117400Y26600D02*
D03*
X34500Y28500D02*
D03*
X28875Y25539D02*
D03*
M02*
